<?xml version="1.0" standalone="no"?>
<!DOCTYPE svg PUBLIC "-//W3C//DTD SVG 20010904//EN"
 "http://www.w3.org/TR/2001/REC-SVG-20010904/DTD/svg10.dtd">
<svg version="1.0" xmlns="http://www.w3.org/2000/svg"
 width="1024.000000pt" height="1024.000000pt" viewBox="0 0 1024.000000 1024.000000"
 preserveAspectRatio="xMidYMid meet">

<g transform="translate(0.000000,1024.000000) scale(0.100000,-0.100000)"
fill="#000000" stroke="none">
<path d="M3193 8616 c-87 -41 -177 -96 -638 -389 -242 -154 -514 -328 -605
-385 -391 -248 -918 -593 -936 -613 -19 -21 -19 -63 -22 -2234 -2 -2174 -2
-2213 17 -2237 11 -13 38 -30 61 -38 l41 -14 -3 -87 c-2 -48 0 -85 3 -83 4 2
9 -3 13 -11 5 -15 182 -107 316 -165 100 -43 314 -143 535 -249 99 -48 212
-102 251 -121 l71 -33 -1 -44 c0 -23 -3 -37 -7 -31 -4 7 -6 24 -4 39 3 24 -2
30 -43 50 -26 12 -68 29 -94 39 -27 9 -45 20 -40 25 4 4 0 6 -8 3 -8 -3 -21 1
-28 9 -7 7 -19 13 -25 13 -7 0 -5 -6 5 -13 11 -9 14 -18 7 -28 -7 -12 -9 -12
-9 1 0 8 -9 21 -21 28 -18 11 -20 11 -17 0 3 -7 -6 -21 -19 -31 -13 -10 -23
-21 -23 -25 0 -4 21 -15 48 -26 26 -10 92 -38 147 -62 55 -24 143 -60 195 -80
52 -20 120 -47 150 -61 30 -14 96 -41 145 -60 50 -19 171 -71 271 -114 172
-75 224 -91 224 -69 0 5 -7 6 -17 3 -11 -4 -14 -3 -9 5 4 7 2 10 -6 7 -7 -3
-19 4 -26 15 l-13 21 40 -20 c27 -14 56 -20 95 -19 33 1 51 5 44 10 -10 6 -9
8 4 8 9 0 18 -4 20 -9 5 -16 58 0 58 18 0 12 2 13 8 3 7 -10 23 -9 83 4 100
22 101 23 95 33 -7 10 104 38 149 37 18 -1 31 2 29 6 -5 7 43 18 231 53 146
27 423 79 630 120 66 13 188 35 270 50 272 50 517 103 528 114 7 7 12 50 12
107 0 108 0 109 81 119 41 5 58 13 74 32 20 26 20 30 18 2936 l-3 2910 -25 18
c-15 12 -171 53 -405 108 -209 49 -589 139 -845 199 -513 121 -936 218 -990
227 -25 4 -50 -1 -87 -19z m163 -141 c47 -15 406 -101 764 -185 91 -21 359
-84 595 -139 237 -55 488 -113 558 -128 l128 -28 -1 -590 c0 -1452 -11 -4535
-16 -4782 l-6 -272 -47 -7 c-100 -14 -2017 -335 -2033 -340 -17 -5 -18 154
-18 3240 0 2708 2 3246 13 3246 8 0 36 -7 63 -15z m-193 -1802 c-2 -962 -3
-1926 -3 -2143 0 -555 -1 -1255 -2 -1382 0 -60 -4 -108 -9 -108 -5 0 -7 1199
-6 2665 1 1466 1 2665 -1 2665 -9 0 -312 -182 -667 -400 -110 -68 -247 -152
-305 -188 -58 -35 -139 -86 -180 -112 -106 -67 -348 -217 -525 -325 -82 -50
-176 -109 -209 -129 -32 -21 -56 -34 -52 -28 7 12 388 258 661 427 105 65 303
187 440 273 138 85 291 180 340 212 50 32 151 95 225 140 74 46 169 105 210
131 41 26 77 48 80 48 3 1 4 -785 3 -1746z m-204 1345 c-11 -41 -11 -41 1 -33
6 3 10 2 10 -4 0 -5 -33 -27 -72 -49 -201 -108 -1087 -606 -1233 -693 -97 -58
-123 -68 -129 -54 -3 8 -10 15 -16 15 -6 0 -9 -4 -6 -8 2 -4 -4 -8 -15 -8 -10
0 -19 1 -19 2 0 4 227 138 338 201 62 35 118 60 124 57 6 -4 8 -3 5 3 -3 5 60
47 141 93 81 46 233 135 337 198 199 120 322 191 377 217 18 8 62 33 98 55 36
22 66 40 67 40 1 0 -3 -15 -8 -32z m-899 -768 c18 -12 2 -12 -25 0 -13 6 -15
9 -5 9 8 0 22 -4 30 -9z m-530 -84 c0 -2 -7 -7 -16 -10 -8 -3 -12 -2 -9 4 6
10 25 14 25 6z m-105 -20 c-39 -27 -127 -77 -131 -74 -4 5 128 86 141 87 5 1
1 -5 -10 -13z m65 5 c0 -5 -19 -19 -42 -31 -47 -24 -46 -20 4 16 38 27 38 27
38 15z m-90 -55 c0 -3 -4 -8 -10 -11 -5 -3 -10 -1 -10 4 0 6 5 11 10 11 6 0
10 -2 10 -4z m-150 -51 c0 -2 -10 -9 -22 -15 -22 -11 -22 -10 -4 4 21 17 26
19 26 11z m40 -19 c0 -2 -7 -7 -16 -10 -8 -3 -12 -2 -9 4 6 10 25 14 25 6z
m1251 -53 c-12 -20 -14 -14 -5 12 4 9 9 14 11 11 3 -2 0 -13 -6 -23z m416 -50
c-3 -10 -5 -4 -5 12 0 17 2 24 5 18 2 -7 2 -21 0 -30z m-446 -26 c-10 -9 -11
-8 -5 6 3 10 9 15 12 12 3 -3 0 -11 -7 -18z m449 -19 c0 -18 -2 -20 -9 -8 -6
8 -7 18 -5 22 9 14 14 9 14 -14z m0 -36 c0 -4 -12 -9 -27 -10 -22 -1 -24 0
-13 8 18 12 40 13 40 2z m-1649 -77 c4 11 8 -793 8 -1787 1 -1271 -2 -1809
-10 -1813 -6 -4 -8 -13 -5 -21 3 -7 1 -16 -4 -19 -7 -4 -10 665 -9 1832 1
1011 4 1827 7 1813 4 -23 5 -24 13 -5z m171 -96 c-14 -5 -20 -13 -16 -20 4 -7
3 -9 -3 -6 -6 4 -13 0 -17 -8 -3 -8 -1 -17 5 -21 15 -9 39 15 32 34 -5 14 -3
15 8 5 11 -11 7 -19 -19 -46 -25 -25 -32 -42 -32 -71 l0 -39 43 48 c23 27 45
62 48 79 6 30 6 30 9 -9 l3 -40 7 40 7 40 2 -43 c1 -36 -5 -51 -40 -95 -46
-57 -83 -132 -104 -211 -13 -49 -14 -43 -14 122 l-1 173 30 32 c16 18 30 35
30 40 0 4 10 7 23 6 l22 0 -23 -10z m1475 -21 c-3 -7 -5 -2 -5 12 0 14 2 19 5
13 2 -7 2 -19 0 -25z m-1111 3 c5 -5 25 -14 44 -19 30 -9 22 -10 -52 -10 -66
0 -98 -5 -134 -21 -56 -25 -53 -25 -50 -4 5 31 66 62 127 62 30 1 59 -3 65 -8z
m315 -33 c1 -7 1 -16 0 -20 0 -5 4 -7 11 -5 6 1 14 -7 16 -17 3 -14 0 -17 -13
-12 -9 3 -25 6 -36 6 -12 0 -19 7 -19 18 0 30 38 58 41 30z m756 -50 c-3 -7
-5 -2 -5 12 0 14 2 19 5 13 2 -7 2 -19 0 -25z m40 -30 c-2 -13 -4 -3 -4 22 0
25 2 35 4 23 2 -13 2 -33 0 -45z m-1032 16 c24 -6 58 -83 52 -116 -4 -22 -4
-22 -6 3 0 14 -8 34 -16 45 -8 10 -15 27 -15 37 0 10 -4 16 -9 12 -5 -3 -12
-1 -16 5 -4 7 -12 7 -25 0 -13 -7 -20 -6 -23 3 -3 6 -6 8 -6 2 0 -5 9 -21 20
-35 11 -14 18 -19 14 -13 -3 7 -2 20 3 30 9 15 13 12 30 -17 12 -18 19 -37 16
-42 -3 -4 0 -8 7 -8 7 0 10 -2 7 -5 -8 -9 -38 6 -32 16 6 11 -4 49 -14 49 -4
0 -6 -13 -6 -30 2 -48 3 -52 16 -44 8 5 9 2 5 -9 -3 -10 -2 -17 3 -17 6 0 10
6 10 13 0 8 4 7 10 -3 5 -8 9 -24 9 -35 -1 -18 -2 -18 -7 2 -4 13 -12 19 -18
15 -8 -5 -6 -17 4 -42 l15 -35 13 40 c18 58 17 13 -2 -51 -17 -58 -38 -85 -28
-36 11 52 -58 222 -104 260 -13 10 -8 12 29 12 24 0 53 -3 64 -6z m316 -79
c-2 0 1 -10 8 -23 7 -12 17 -20 23 -16 6 4 8 3 4 -4 -3 -5 -1 -12 6 -14 6 -2
8 -10 4 -17 -5 -8 -18 4 -39 36 -18 26 -32 51 -32 55 0 3 -3 10 -7 14 -5 4 -8
12 -8 18 0 6 11 -2 23 -19 12 -16 20 -30 18 -30z m676 8 c-3 -10 -5 -4 -5 12
0 17 2 24 5 18 2 -7 2 -21 0 -30z m-1209 -20 c50 -64 104 -193 80 -193 -5 0
-6 -6 -2 -12 5 -9 2 -9 -9 1 -18 15 -23 26 -7 16 19 -12 10 20 -24 90 -35 69
-85 139 -87 120 -2 -25 -8 -47 -15 -53 -4 -4 -4 1 -1 11 5 12 1 17 -13 17 -21
0 -44 -34 -36 -53 2 -7 5 -3 5 7 1 18 2 18 21 1 11 -10 17 -21 15 -26 -3 -4
-1 -10 5 -14 5 -3 10 0 10 7 1 7 7 2 15 -12 7 -14 12 -26 10 -28 -3 -4 -93 56
-100 67 -10 18 61 84 97 90 3 1 20 -16 36 -36z m1252 7 c0 -16 -4 -30 -8 -30
-5 0 -7 14 -4 30 2 17 6 30 8 30 2 0 4 -13 4 -30z m-613 -22 c-3 -8 -6 -5 -6
6 -1 11 2 17 5 13 3 -3 4 -12 1 -19z m-25 -13 c3 -14 1 -28 -3 -31 -5 -3 -9 9
-9 25 0 38 6 40 12 6z m-692 5 c0 -5 -4 -10 -10 -10 -5 0 -10 5 -10 10 0 6 5
10 10 10 6 0 10 -4 10 -10z m720 -110 c0 -55 -3 -100 -7 -100 -5 0 -20 34 -35
76 -17 49 -22 71 -13 64 8 -7 17 -27 21 -46 7 -36 21 -47 21 -16 -1 58 4 122
8 122 3 0 5 -45 5 -100z m609 73 c0 -25 -1 -25 -8 -8 -5 11 -7 23 -4 28 8 14
13 7 12 -20z m-1255 4 c7 -7 20 -25 30 -42 l18 -30 -28 33 c-42 47 -51 39 -13
-10 54 -71 55 -73 42 -64 -7 4 -32 33 -57 64 -39 51 -42 58 -24 59 11 1 26 -3
32 -10z m-148 -35 c-19 -37 -11 -47 52 -62 28 -6 55 -17 59 -23 4 -7 0 -8 -13
-3 -10 5 -46 13 -80 19 l-61 11 15 30 c16 33 32 56 38 56 3 0 -2 -13 -10 -28z
m774 8 c0 -5 -7 -7 -15 -4 -8 4 -15 8 -15 10 0 2 7 4 15 4 8 0 15 -4 15 -10z
m628 -35 c-3 -3 -9 2 -12 12 -6 14 -5 15 5 6 7 -7 10 -15 7 -18z m-41 -22 c-3
-10 -5 -4 -5 12 0 17 2 24 5 18 2 -7 2 -21 0 -30z m0 -45 c-3 -8 -6 -5 -6 6
-1 11 2 17 5 13 3 -3 4 -12 1 -19z m40 -10 c-3 -8 -6 -5 -6 6 -1 11 2 17 5 13
3 -3 4 -12 1 -19z m-1252 2 c3 -6 -1 -7 -9 -4 -18 7 -21 14 -7 14 6 0 13 -4
16 -10z m822 -45 c11 18 12 15 13 -21 0 -33 -4 -43 -20 -47 -19 -5 -20 -1 -19
61 2 57 3 61 8 27 6 -37 7 -38 18 -20z m433 15 c0 -5 -2 -10 -4 -10 -3 0 -8 5
-11 10 -3 6 -1 10 4 10 6 0 11 -4 11 -10z m-43 -47 c-3 -10 -5 -4 -5 12 0 17
2 24 5 18 2 -7 2 -21 0 -30z m-958 -10 c61 -46 85 -150 47 -208 -43 -66 -132
-66 -196 0 -30 31 -35 42 -38 100 -4 63 -4 65 32 101 34 34 40 36 82 31 26 -2
58 -14 73 -24z m811 -17 c0 -31 -3 -34 -40 -44 -23 -5 -40 -6 -40 -1 0 5 9 9
20 9 12 0 20 7 21 18 0 10 3 12 6 5 8 -22 23 -14 23 11 0 15 -7 26 -17 29 -14
4 -12 5 5 6 19 1 22 -4 22 -33z m190 -10 c0 -13 -8 -30 -17 -37 -16 -12 -17
-12 -6 2 7 8 11 25 8 37 -2 12 0 22 6 22 5 0 9 -11 9 -24z m-37 1 c3 -8 1 -20
-4 -28 -6 -10 -9 -7 -9 14 0 29 5 35 13 14z m-1199 -44 c6 -4 -3 -10 -19 -15
-16 -4 -34 -4 -39 1 -6 4 -21 11 -33 13 -16 4 -20 2 -16 -9 3 -8 12 -12 19 -9
8 3 14 1 14 -4 0 -10 -14 -14 -38 -11 -7 1 -15 -5 -19 -14 -5 -13 -7 -14 -14
-3 -7 11 -9 11 -9 0 0 -18 -26 -43 -35 -34 -5 4 -5 1 -1 -5 6 -11 -3 -17 -25
-15 -3 1 -3 -13 -1 -30 4 -26 6 -28 14 -14 6 10 7 20 4 23 -12 12 125 93 157
93 18 -1 15 -5 -17 -23 -55 -31 -126 -97 -138 -127 -10 -25 -10 -24 -24 15 -8
22 -17 64 -20 93 -6 46 -5 52 12 54 55 4 74 3 74 -5 0 -5 7 -4 15 3 17 14 20
30 4 30 -5 0 -8 -3 -6 -7 3 -5 -19 -8 -49 -9 -57 0 -73 11 -26 19 34 7 202 -2
216 -10z m1236 -13 c0 -5 -5 -10 -11 -10 -5 0 -7 5 -4 10 3 6 8 10 11 10 2 0
4 -4 4 -10z m-1549 -60 c9 -191 144 -407 301 -480 35 -16 86 -34 113 -41 28
-6 59 -16 69 -21 11 -6 40 -10 64 -10 106 3 210 66 282 172 45 67 99 194 101
237 1 15 4 39 8 53 4 14 6 -69 4 -185 l-3 -210 -29 -40 c-26 -36 -34 -40 -76
-43 -68 -5 -79 13 -24 37 57 26 73 43 97 111 18 49 30 192 16 177 -3 -3 -4 -7
-2 -9 1 -3 -5 -12 -14 -22 -10 -10 -18 -22 -18 -29 0 -6 7 -2 15 9 17 22 20
12 4 -17 -5 -11 -13 -17 -17 -15 -5 3 -20 -15 -34 -38 -23 -38 -24 -43 -8 -39
12 3 16 11 13 21 -4 10 -2 13 6 8 6 -4 10 -4 9 1 -2 4 7 18 20 31 30 30 28 15
-7 -40 -70 -111 -184 -203 -249 -201 -53 2 -271 31 -309 42 -71 21 -236 161
-277 236 l-16 30 6 -50 c9 -73 32 -107 82 -123 23 -8 42 -18 42 -22 0 -15 -39
-22 -80 -15 -32 5 -45 15 -70 53 l-30 45 0 225 c0 212 5 286 11 162z m1256
-73 c-2 -23 -3 -1 -3 48 0 50 1 68 3 42 2 -26 2 -67 0 -90z m250 61 c-2 -13
-4 -5 -4 17 -1 22 1 32 4 23 2 -10 2 -28 0 -40z m33 42 c-10 -6 -11 -10 -2
-10 6 0 12 -10 12 -22 -1 -23 -1 -23 -14 2 -15 26 -12 40 7 40 7 0 6 -4 -3
-10z m-1783 -32 c-3 -8 -6 -5 -6 6 -1 11 2 17 5 13 3 -3 4 -12 1 -19z m1372
-105 c0 -62 -4 -100 -8 -88 -4 10 -7 30 -5 42 1 13 -2 23 -8 23 -5 0 -8 -16
-7 -34 2 -19 0 -38 -4 -42 -4 -4 -7 41 -7 99 0 100 1 107 20 107 19 0 20 -6
19 -107z m421 67 c0 -5 -5 -10 -11 -10 -5 0 -7 5 -4 10 3 6 8 10 11 10 2 0 4
-4 4 -10z m-3 -52 c-3 -7 -5 -2 -5 12 0 14 2 19 5 13 2 -7 2 -19 0 -25z m-40
-30 c-2 -13 -4 -5 -4 17 -1 22 1 32 4 23 2 -10 2 -28 0 -40z m-650 10 c-3 -7
-5 -2 -5 12 0 14 2 19 5 13 2 -7 2 -19 0 -25z m-120 16 c-3 -3 -12 -4 -19 -1
-8 3 -5 6 6 6 11 1 17 -2 13 -5z m73 2 c0 -2 -11 -6 -25 -8 -14 -3 -25 -1 -25
3 0 5 11 9 25 9 14 0 25 -2 25 -4z m738 -41 c0 -14 -4 -25 -8 -25 -6 0 -7 37
-1 48 4 9 9 -2 9 -23z m-291 -122 c-2 -27 -3 -5 -3 47 0 52 1 74 3 48 2 -27 2
-69 0 -95z m-919 110 c-8 -10 -12 -27 -10 -38 l5 -20 8 20 c5 14 8 1 9 -40 0
-33 7 -87 15 -120 17 -70 18 -85 7 -85 -10 0 -74 43 -120 80 -30 25 -30 26
-18 70 6 25 17 55 25 68 12 23 13 23 26 5 13 -17 14 -17 15 0 0 9 5 17 10 17
6 0 8 11 6 24 -3 17 1 26 12 29 9 3 19 5 21 6 2 0 -3 -7 -11 -16z m1169 -25
c-3 -8 -6 -5 -6 6 -1 11 2 17 5 13 3 -3 4 -12 1 -19z m43 -14 c0 -8 -5 -12
-10 -9 -6 4 -8 11 -5 16 9 14 15 11 15 -7z m-43 -51 c-3 -10 -5 -2 -5 17 0 19
2 27 5 18 2 -10 2 -26 0 -35z m-993 5 c1 -7 4 -17 7 -23 10 -16 20 -65 14 -65
-9 0 -35 67 -35 91 0 23 10 21 14 -3z m129 -78 c7 -1 26 -7 42 -16 24 -11 25
-13 7 -10 -17 3 -22 1 -18 -10 14 -35 -40 -1 -101 65 -69 74 -68 86 3 22 30
-28 61 -51 67 -51z m907 80 c0 -11 -4 -20 -9 -20 -5 0 -7 9 -4 20 3 11 7 20 9
20 2 0 4 -9 4 -20z m-43 -67 c-3 -10 -5 -4 -5 12 0 17 2 24 5 18 2 -7 2 -21 0
-30z m43 -14 c0 -27 -4 -48 -8 -45 -5 3 -7 19 -4 36 3 18 0 30 -7 30 -8 0 -8
4 1 15 7 8 14 14 16 15 1 0 2 -23 2 -51z m-180 11 c0 -5 -12 -10 -27 -9 l-28
1 25 8 c14 4 26 8 28 9 1 1 2 -3 2 -9z m-242 -152 c-2 -39 -7 -53 -18 -53 -19
0 -26 40 -22 122 3 48 7 63 20 65 19 4 25 -40 20 -134z m162 138 c0 -2 -7 -7
-16 -10 -8 -3 -12 -2 -9 4 6 10 25 14 25 6z m-540 -16 c-20 -13 -33 -13 -25 0
3 6 14 10 23 10 15 0 15 -2 2 -10z m620 -10 c0 -11 -2 -20 -4 -20 -2 0 -6 9
-9 20 -3 11 -1 20 4 20 5 0 9 -9 9 -20z m137 -42 c-2 -13 -4 -3 -4 22 0 25 2
35 4 23 2 -13 2 -33 0 -45z m-957 36 c0 -10 6 -14 14 -11 9 4 13 1 10 -6 -2
-7 7 -23 20 -36 25 -24 26 -24 53 -5 15 10 33 19 38 19 6 1 9 7 7 14 -2 8 3
11 12 8 8 -3 17 -2 20 4 2 5 3 4 2 -3 -1 -7 -28 -26 -58 -43 l-56 -30 -24 22
c-30 28 -62 83 -49 83 6 0 11 -7 11 -16z m820 -39 c0 -8 -4 -15 -10 -15 -5 0
-7 7 -4 15 4 8 8 15 10 15 2 0 4 -7 4 -15z m180 0 c0 -8 -4 -15 -10 -15 -5 0
-7 7 -4 15 4 8 8 15 10 15 2 0 4 -7 4 -15z m0 -29 c0 -2 -7 -7 -16 -10 -8 -3
-12 -2 -9 4 6 10 25 14 25 6z m-43 -73 c-3 -10 -5 -4 -5 12 0 17 2 24 5 18 2
-7 2 -21 0 -30z m41 -8 c-3 -3 -9 2 -12 12 -6 14 -5 15 5 6 7 -7 10 -15 7 -18z
m-1791 -87 c-2 -13 -4 -3 -4 22 0 25 2 35 4 23 2 -13 2 -33 0 -45z m1750 10
c-3 -7 -5 -2 -5 12 0 14 2 19 5 13 2 -7 2 -19 0 -25z m-367 -17 c0 -5 -9 -7
-19 -4 -18 4 -20 -1 -24 -48 l-3 -54 -2 58 c-2 55 -1 57 23 57 14 0 25 -4 25
-9z m410 -36 c0 -14 -2 -25 -4 -25 -2 0 -6 11 -8 25 -3 14 -1 25 3 25 5 0 9
-11 9 -25z m-414 -10 c-4 -38 -17 -44 -14 -7 1 18 5 32 9 32 4 0 6 -11 5 -25z
m371 -7 c-3 -8 -6 -5 -6 6 -1 11 2 17 5 13 3 -3 4 -12 1 -19z m-1750 -50 c-3
-7 -5 -2 -5 12 0 14 2 19 5 13 2 -7 2 -19 0 -25z m1774 -25 c10 3 19 2 19 -3
0 -4 -11 -10 -25 -12 -24 -5 -25 -3 -23 36 1 38 1 39 5 8 4 -28 8 -33 24 -29z
m12 32 c-3 -9 -8 -14 -10 -11 -3 3 -2 9 2 15 9 16 15 13 8 -4z m-1806 -227
c-3 -8 -6 -5 -6 6 -1 11 2 17 5 13 3 -3 4 -12 1 -19z m20 -70 c-3 -8 -6 -5 -6
6 -1 11 2 17 5 13 3 -3 4 -12 1 -19z m1678 12 c4 -6 -8 -10 -29 -10 -19 0 -37
-3 -39 -7 -3 -5 16 -6 41 -5 31 3 44 1 37 -6 -5 -5 -84 -13 -175 -16 -147 -6
-332 -17 -505 -31 -33 -2 -118 -7 -190 -10 -71 -4 -139 -9 -150 -11 -18 -5
-18 -4 -3 6 10 6 47 12 83 13 36 1 65 5 65 10 0 5 -22 7 -50 6 -27 -2 -53 0
-56 4 -4 4 26 7 67 8 41 0 81 2 89 3 8 2 74 6 145 10 130 8 644 42 657 45 4 0
10 -3 13 -9z m-1678 -152 c-2 -13 -4 -3 -4 22 0 25 2 35 4 23 2 -13 2 -33 0
-45z m560 56 c-3 -3 -12 -4 -19 -1 -8 3 -5 6 6 6 11 1 17 -2 13 -5z m971 -76
c-3 -21 -9 -24 -83 -30 -44 -4 -167 -11 -272 -16 l-193 -8 -72 -71 -73 -70
-145 3 c-80 1 -167 3 -193 3 -29 1 -46 5 -42 11 3 5 20 9 38 8 18 -1 41 2 52
6 15 6 16 5 6 -2 -10 -7 -3 -10 25 -10 21 0 33 3 26 5 -6 3 -9 9 -6 15 4 7
-10 9 -39 7 -25 -2 -43 -1 -40 4 2 4 66 7 142 7 l138 0 39 56 c21 31 42 61 45
67 4 5 49 11 100 13 52 1 152 6 223 9 122 7 129 6 122 -12 -6 -16 -5 -17 7 -1
13 17 33 20 140 26 56 3 58 2 55 -20z m-1531 -75 c-3 -10 -5 -2 -5 17 0 19 2
27 5 18 2 -10 2 -26 0 -35z m-20 -15 c-3 -7 -5 -2 -5 12 0 14 2 19 5 13 2 -7
2 -19 0 -25z m1138 -29 c11 -16 1 -19 -13 -3 -7 8 -8 14 -3 14 5 0 13 -5 16
-11z m127 -43 c79 -33 97 -36 182 -36 69 0 95 -4 99 -13 4 -10 -2 -13 -20 -9
-18 3 -24 1 -19 -7 4 -6 0 -11 -11 -12 -10 0 -13 -3 -5 -6 6 -2 12 -16 12 -29
0 -14 4 -22 10 -19 6 3 10 1 10 -5 0 -8 -25 -10 -87 -5 -115 9 -151 18 -223
62 -63 37 -76 57 -19 29 18 -9 35 -14 37 -11 3 3 0 5 -7 5 -7 0 -10 4 -7 9 3
5 -1 11 -9 15 -8 3 -15 15 -15 26 0 11 -3 19 -7 19 -21 -3 -33 3 -33 17 0 9 5
14 13 11 6 -3 51 -22 99 -41z m-206 19 c18 -13 18 -14 -4 -8 -12 3 -25 9 -28
14 -8 14 10 11 32 -6z m-1039 -77 c-2 -13 -4 -5 -4 17 -1 22 1 32 4 23 2 -10
2 -28 0 -40z m1510 -30 c-3 -8 -6 -5 -6 6 -1 11 2 17 5 13 3 -3 4 -12 1 -19z
m-917 -3 c0 -7 -30 -13 -34 -7 -3 4 4 9 15 9 10 1 19 0 19 -2z m475 -5 c3 -5
2 -10 -4 -10 -5 0 -13 5 -16 10 -3 6 -2 10 4 10 5 0 13 -4 16 -10z m-1068 -37
c-3 -10 -5 -4 -5 12 0 17 2 24 5 18 2 -7 2 -21 0 -30z m696 30 c-7 -2 -19 -2
-25 0 -7 3 -2 5 12 5 14 0 19 -2 13 -5z m114 -39 c-3 -3 -12 -4 -19 -1 -8 3
-5 6 6 6 11 1 17 -2 13 -5z m-830 -36 c-3 -8 -6 -5 -6 6 -1 11 2 17 5 13 3 -3
4 -12 1 -19z m20 -10 c-3 -7 -5 -2 -5 12 0 14 2 19 5 13 2 -7 2 -19 0 -25z m0
-70 c-3 -7 -5 -2 -5 12 0 14 2 19 5 13 2 -7 2 -19 0 -25z m0 -55 c-3 -10 -5
-4 -5 12 0 17 2 24 5 18 2 -7 2 -21 0 -30z m0 -55 c-3 -7 -5 -2 -5 12 0 14 2
19 5 13 2 -7 2 -19 0 -25z m-20 -75 c-3 -10 -5 -4 -5 12 0 17 2 24 5 18 2 -7
2 -21 0 -30z m20 -5 c-3 -7 -5 -2 -5 12 0 14 2 19 5 13 2 -7 2 -19 0 -25z m0
-100 c-2 -18 -4 -6 -4 27 0 33 2 48 4 33 2 -15 2 -42 0 -60z m-20 -25 c-3 -10
-5 -4 -5 12 0 17 2 24 5 18 2 -7 2 -21 0 -30z m20 -35 c-3 -8 -6 -5 -6 6 -1
11 2 17 5 13 3 -3 4 -12 1 -19z m0 -150 c-3 -8 -6 -5 -6 6 -1 11 2 17 5 13 3
-3 4 -12 1 -19z m-20 -45 c-3 -10 -5 -4 -5 12 0 17 2 24 5 18 2 -7 2 -21 0
-30z m20 -50 c-2 -16 -4 -5 -4 22 0 28 2 40 4 28 2 -13 2 -35 0 -50z m0 -85
c-3 -8 -6 -5 -6 6 -1 11 2 17 5 13 3 -3 4 -12 1 -19z m447 0 c-5 -8 4 -9 35
-4 26 4 40 3 37 -3 -4 -6 8 -8 30 -4 21 4 35 2 31 -3 -3 -5 13 -8 36 -8 22 1
68 -5 101 -12 88 -19 245 -50 456 -89 409 -76 511 -99 506 -112 -3 -7 2 -14
12 -14 14 -1 14 -2 1 -6 -21 -5 -1183 226 -1187 237 -2 5 -10 6 -18 3 -8 -3
-26 -2 -41 2 -21 5 -24 8 -12 16 19 12 22 11 13 -3z m-447 -40 c-3 -8 -6 -5
-6 6 -1 11 2 17 5 13 3 -3 4 -12 1 -19z m0 -85 c-3 -10 -5 -4 -5 12 0 17 2 24
5 18 2 -7 2 -21 0 -30z m1446 20 c-7 -2 -19 -2 -25 0 -7 3 -2 5 12 5 14 0 19
-2 13 -5z m24 -29 c-3 -3 -12 -4 -19 -1 -8 3 -5 6 6 6 11 1 17 -2 13 -5z m276
-131 c-7 -2 -19 -2 -25 0 -7 3 -2 5 12 5 14 0 19 -2 13 -5z m-1746 -85 c-3 -8
-6 -5 -6 6 -1 11 2 17 5 13 3 -3 4 -12 1 -19z m0 -40 c-3 -8 -6 -5 -6 6 -1 11
2 17 5 13 3 -3 4 -12 1 -19z m0 -50 c-3 -7 -5 -2 -5 12 0 14 2 19 5 13 2 -7 2
-19 0 -25z m0 -50 c-3 -8 -6 -5 -6 6 -1 11 2 17 5 13 3 -3 4 -12 1 -19z m-20
-40 c-3 -8 -6 -5 -6 6 -1 11 2 17 5 13 3 -3 4 -12 1 -19z m2013 -327 c0 -121
-16 -125 -18 -6 -1 58 2 95 8 95 6 0 10 -36 10 -89z m-1765 41 c-3 -3 -11 0
-18 7 -9 10 -8 11 6 5 10 -3 15 -9 12 -12z m115 -12 c30 -11 57 -20 59 -20 2
0 2 -3 -1 -6 -4 -3 -16 0 -28 6 -11 6 -29 10 -38 8 -15 -3 14 -15 104 -43 13
-4 11 -1 -6 10 l-25 16 25 -7 c14 -3 52 -17 85 -31 33 -13 179 -70 325 -125
146 -55 310 -117 365 -138 285 -108 414 -159 441 -174 16 -10 20 -14 9 -10
-55 19 -185 68 -227 85 -26 10 -53 19 -60 19 -11 0 87 -41 355 -147 37 -14 66
-28 64 -30 -3 -2 -424 156 -637 240 -36 14 -202 78 -370 143 -483 185 -535
206 -540 212 -3 3 3 2 13 -1 11 -4 31 -10 45 -13 l27 -5 -25 15 c-34 21 -25
20 40 -4z m1647 -155 c0 -8 -4 -15 -9 -15 -4 0 -8 7 -8 15 0 8 4 15 8 15 5 0
9 -7 9 -15z m3 -71 c0 -25 -4 -43 -9 -40 -5 3 -7 23 -6 43 4 45 4 43 10 43 3
0 5 -21 5 -46z m-1615 -44 c3 -5 1 -10 -4 -10 -6 0 -11 5 -11 10 0 6 2 10 4
10 3 0 8 -4 11 -10z m10 -30 c3 -6 -1 -7 -9 -4 -18 7 -21 14 -7 14 6 0 13 -4
16 -10z m1591 -78 c-14 -15 -15 -13 -6 17 5 18 9 36 8 40 0 3 1 11 2 16 2 6 5
-5 7 -24 3 -22 -1 -39 -11 -49z m5 -39 c-8 -15 -10 -15 -11 -2 0 17 10 32 18
25 2 -3 -1 -13 -7 -23z m-1326 -1 c-3 -3 -11 0 -18 7 -9 10 -8 11 6 5 10 -3
15 -9 12 -12z m45 -12 c8 -5 11 -10 5 -10 -5 0 -17 5 -25 10 -8 5 -10 10 -5
10 6 0 17 -5 25 -10z m110 -50 c8 -5 11 -10 5 -10 -5 0 -17 5 -25 10 -8 5 -10
10 -5 10 6 0 17 -5 25 -10z m120 -50 c0 -5 -2 -10 -4 -10 -3 0 -8 5 -11 10 -3
6 -1 10 4 10 6 0 11 -4 11 -10z m777 4 c-3 -3 -12 -4 -19 -1 -8 3 -5 6 6 6 11
1 17 -2 13 -5z m44 -22 c-7 -2 -18 1 -23 6 -8 8 -4 9 13 5 13 -4 18 -8 10 -11z
m-1161 -148 c0 -2 -9 0 -20 6 -11 6 -20 13 -20 16 0 2 9 0 20 -6 11 -6 20 -13
20 -16z m115 -54 c3 -6 -1 -7 -9 -4 -18 7 -21 14 -7 14 6 0 13 -4 16 -10z
m160 -210 c3 -5 1 -10 -4 -10 -6 0 -11 5 -11 10 0 6 2 10 4 10 3 0 8 -4 11
-10z m51 -15 c-4 -16 -2 -25 5 -25 7 0 10 -2 7 -5 -3 -3 -12 -3 -21 1 -13 5
-14 10 -5 30 15 31 22 31 14 -1z m-76 5 c0 -5 -5 -10 -11 -10 -5 0 -7 5 -4 10
3 6 8 10 11 10 2 0 4 -4 4 -10z m105 0 c3 -5 1 -10 -4 -10 -6 0 -11 5 -11 10
0 6 2 10 4 10 3 0 8 -4 11 -10z m-65 -20 c0 -5 -7 -7 -15 -4 -8 4 -15 8 -15
10 0 2 7 4 15 4 8 0 15 -4 15 -10z m110 0 c0 -5 -2 -10 -4 -10 -3 0 -8 5 -11
10 -3 6 -1 10 4 10 6 0 11 -4 11 -10z m-34 -24 c0 -14 -5 -21 -9 -17 -4 4 -5
15 -1 24 9 24 12 21 10 -7z m64 14 c0 -5 -5 -10 -11 -10 -5 0 -7 5 -4 10 3 6
8 10 11 10 2 0 4 -4 4 -10z m-20 -26 c0 -2 -7 -4 -15 -4 -8 0 -15 4 -15 10 0
5 7 7 15 4 8 -4 15 -8 15 -10z m27 -16 c-3 -8 -6 -5 -6 6 -1 11 2 17 5 13 3
-3 4 -12 1 -19z m31 -3 c-3 -3 -9 2 -12 12 -6 14 -5 15 5 6 7 -7 10 -15 7 -18z
m112 9 c0 -2 -7 -4 -15 -4 -8 0 -15 4 -15 10 0 5 7 7 15 4 8 -4 15 -8 15 -10z
m-77 -8 c4 -10 1 -13 -8 -9 -8 3 -12 9 -9 14 7 12 11 11 17 -5z m147 -41 c-5
-7 -7 -15 -3 -18 3 -4 2 -7 -3 -7 -6 0 -15 5 -22 12 -9 9 -12 9 -12 -1 0 -7
-5 -9 -11 -5 -15 9 9 24 28 17 7 -3 13 0 13 5 0 17 -41 26 -51 11 -10 -16 -12
-8 -3 15 5 13 9 13 40 -1 24 -12 31 -20 24 -28z m-80 31 c0 -3 -4 -8 -10 -11
-5 -3 -10 -1 -10 4 0 6 5 11 10 11 6 0 10 -2 10 -4z m-64 -31 c17 -13 16 -14
-13 -4 -34 11 -42 19 -20 19 7 0 22 -7 33 -15z m282 -50 c39 -20 72 -39 72
-41 0 -3 -3 -3 -7 -1 -80 40 -165 77 -172 73 -4 -3 -8 1 -8 9 0 16 12 12 115
-40z m-208 25 c0 -5 -5 -10 -11 -10 -5 0 -7 5 -4 10 3 6 8 10 11 10 2 0 4 -4
4 -10z m80 -22 c0 -4 -6 -8 -14 -8 -8 0 -17 4 -20 8 -2 4 4 8 15 8 10 0 19 -4
19 -8z m897 -4 c-3 -3 -12 -4 -19 -1 -8 3 -5 6 6 6 11 1 17 -2 13 -5z m-856
-27 c-10 -9 -11 -8 -5 6 3 10 9 15 12 12 3 -3 0 -11 -7 -18z m89 -1 c0 -2 -7
-7 -16 -10 -8 -3 -12 -2 -9 4 6 10 25 14 25 6z m155 -53 c30 -20 9 -15 -36 8
l-41 20 7 -23 c6 -18 5 -21 -5 -11 -7 6 -10 19 -7 27 5 13 11 14 34 4 15 -7
37 -18 48 -25z m-110 -3 c3 -6 -1 -7 -9 -4 -18 7 -21 14 -7 14 6 0 13 -4 16
-10z m190 -32 c14 -6 25 -15 25 -20 0 -5 -10 -2 -23 7 -13 8 -27 12 -30 8 -4
-3 -7 -1 -7 5 0 15 3 15 35 0z m588 -15 c-7 -2 -21 -2 -30 0 -10 3 -4 5 12 5
17 0 24 -2 18 -5z m-528 -21 c-3 -3 -11 0 -18 7 -9 10 -8 11 6 5 10 -3 15 -9
12 -12z m-8 -18 c-3 -3 -12 -4 -19 -1 -8 3 -5 6 6 6 11 1 17 -2 13 -5z m68
-12 c-3 -3 -11 0 -18 7 -9 10 -8 11 6 5 10 -3 15 -9 12 -12z m46 -20 c-7 -2
-18 1 -23 6 -8 8 -4 9 13 5 13 -4 18 -8 10 -11z m60 -29 c13 -15 12 -15 -8 -4
-24 12 -29 21 -14 21 5 0 15 -7 22 -17z m499 -3 c0 -5 -10 -10 -22 -10 -19 0
-20 2 -8 10 19 13 30 13 30 0z m-55 -10 c-3 -5 -14 -10 -23 -10 -15 0 -15 2
-2 10 20 13 33 13 25 0z m-405 -4 c0 -3 -4 -8 -10 -11 -5 -3 -10 -1 -10 4 0 6
5 11 10 11 6 0 10 -2 10 -4z m11 -29 c-10 -9 -11 -8 -5 6 3 10 9 15 12 12 3
-3 0 -11 -7 -18z m349 19 c0 -2 -11 -6 -25 -8 -13 -3 -22 -1 -19 3 5 9 44 13
44 5z m-93 -22 c-3 -3 -12 -4 -19 -1 -8 3 -5 6 6 6 11 1 17 -2 13 -5z"/>
<path d="M3395 8179 c-4 -99 -5 -183 -1 -186 5 -5 432 -92 876 -178 96 -18
365 -72 597 -119 232 -47 424 -86 427 -86 3 0 6 72 6 160 0 157 0 160 -22 165
-13 3 -97 21 -188 40 -182 38 -735 161 -1040 231 -107 25 -283 65 -390 89
-107 24 -208 48 -223 54 -16 6 -30 11 -31 11 -2 0 -7 -81 -11 -181z m462 -33
c186 -41 419 -93 518 -115 386 -86 815 -181 820 -181 9 0 5 -149 -4 -154 -5
-4 -21 -2 -35 4 -15 5 -118 28 -229 50 -257 52 -647 134 -757 160 -155 36
-493 108 -587 125 l-93 17 0 84 c0 68 3 84 15 84 8 0 167 -33 352 -74z"/>
<path d="M3500 8180 c0 -5 6 -10 13 -10 8 0 7 -4 -3 -10 -13 -8 -12 -10 3 -10
9 0 17 4 17 10 0 5 10 8 23 6 12 -3 30 -5 40 -5 10 -1 16 -5 13 -9 -2 -4 8 -7
22 -6 40 1 133 -22 142 -36 5 -8 9 -8 11 -2 3 7 33 4 88 -9 47 -11 92 -18 100
-17 15 3 -35 15 -309 74 -63 13 -125 26 -137 29 -13 3 -23 1 -23 -5z"/>
<path d="M3566 8139 c4 -6 0 -15 -7 -20 -8 -5 -9 -9 -3 -9 6 0 17 6 23 14 9
11 8 15 -4 20 -10 4 -14 2 -9 -5z"/>
<path d="M3510 8130 c0 -5 5 -10 11 -10 5 0 7 5 4 10 -3 6 -8 10 -11 10 -2 0
-4 -4 -4 -10z"/>
<path d="M3639 8103 l-24 -28 28 24 c25 23 32 31 24 31 -2 0 -14 -12 -28 -27z"/>
<path d="M3700 8110 c0 -5 5 -10 11 -10 5 0 7 5 4 10 -3 6 -8 10 -11 10 -2 0
-4 -4 -4 -10z"/>
<path d="M3500 8100 c0 -5 5 -10 11 -10 5 0 7 5 4 10 -3 6 -8 10 -11 10 -2 0
-4 -4 -4 -10z"/>
<path d="M3575 8101 c-3 -5 0 -13 6 -17 8 -5 9 -3 4 6 -6 10 -4 12 9 7 10 -4
15 -3 11 3 -8 13 -22 13 -30 1z"/>
<path d="M3675 8100 c3 -5 8 -10 11 -10 2 0 4 5 4 10 0 6 -5 10 -11 10 -5 0
-7 -4 -4 -10z"/>
<path d="M3695 8080 c-3 -5 -1 -10 4 -10 6 0 11 5 11 10 0 6 -2 10 -4 10 -3 0
-8 -4 -11 -10z"/>
<path d="M3736 8075 c4 -8 8 -15 10 -15 2 0 4 7 4 15 0 8 -4 15 -10 15 -5 0
-7 -7 -4 -15z"/>
<path d="M3835 8080 c3 -5 8 -10 11 -10 2 0 4 5 4 10 0 6 -5 10 -11 10 -5 0
-7 -4 -4 -10z"/>
<path d="M3500 8069 c0 -5 11 -9 25 -9 33 0 33 15 0 16 -14 1 -25 -2 -25 -7z"/>
<path d="M3877 8069 c7 -7 15 -10 18 -7 3 3 -2 9 -12 12 -14 6 -15 5 -6 -5z"/>
<path d="M3990 8071 c0 -6 5 -13 12 -17 7 -4 8 -3 4 4 -9 15 -3 15 64 -3 65
-18 60 -17 60 -7 0 4 -26 13 -58 20 -70 14 -82 15 -82 3z"/>
<path d="M3560 8059 c0 -5 9 -9 20 -9 11 0 20 2 20 4 0 2 -9 6 -20 9 -11 3
-20 1 -20 -4z"/>
<path d="M3960 8060 c0 -5 5 -10 10 -10 6 0 10 5 10 10 0 6 -4 10 -10 10 -5 0
-10 -4 -10 -10z"/>
<path d="M3760 8041 c0 -10 7 -22 16 -25 14 -5 15 -4 5 8 -7 8 -10 20 -6 26 3
5 1 10 -4 10 -6 0 -11 -9 -11 -19z"/>
<path d="M3650 8040 c0 -5 7 -10 16 -10 8 0 12 5 9 10 -3 6 -10 10 -16 10 -5
0 -9 -4 -9 -10z"/>
<path d="M3725 8030 c-16 -7 -17 -9 -3 -9 9 -1 20 4 23 9 7 11 7 11 -20 0z"/>
<path d="M3846 8031 c-3 -5 1 -11 9 -14 9 -4 12 -1 8 9 -6 16 -10 17 -17 5z"/>
<path d="M3897 8003 c-3 -5 6 -9 20 -10 19 -1 22 1 12 8 -17 11 -26 11 -32 2z"/>
<path d="M3390 5035 c0 -2275 -3 -2869 -12 -2886 -11 -17 -10 -22 6 -34 10 -8
24 -11 30 -7 7 4 2 8 -11 10 -32 5 -29 29 5 36 31 7 437 73 862 141 579 93
1014 166 1020 171 7 7 13 5064 6 5064 -16 0 -474 90 -490 96 -42 16 -4 -13 56
-44 45 -23 104 -40 201 -59 l138 -28 -6 -2239 c-6 -1903 -9 -2241 -21 -2253
-15 -15 -17 -24 -15 -58 1 -24 -15 -52 -25 -42 -4 3 -1 13 5 21 15 18 6 52
-14 60 -20 7 -19 -4 0 -18 13 -9 13 -15 3 -38 -7 -16 -20 -28 -30 -28 -9 0
-28 -20 -42 -47 -30 -53 -28 -67 3 -27 11 15 21 22 21 16 0 -14 -51 -67 -74
-75 -10 -4 -16 -10 -13 -13 3 -3 -6 -17 -21 -31 -17 -16 -21 -23 -10 -19 10 3
20 0 24 -6 4 -7 3 -8 -4 -4 -8 5 -12 -1 -12 -15 0 -22 1 -22 30 6 21 20 28 35
24 49 -4 17 -3 18 5 6 10 -13 15 -8 12 13 0 4 3 7 8 7 5 0 19 16 31 35 17 27
19 38 11 54 -10 17 -8 19 8 16 11 -2 22 3 25 12 4 9 9 13 12 10 8 -8 -37 -86
-97 -167 -49 -67 -184 -197 -222 -215 -12 -5 -26 -15 -32 -22 -10 -12 -127
-71 -180 -91 -135 -50 -314 -68 -460 -46 -161 24 -349 135 -458 269 -54 67
-113 178 -103 194 5 7 1 8 -10 4 -11 -4 -15 -3 -11 4 10 17 -3 43 -22 43 -10
0 -12 3 -5 8 15 10 -3 72 -21 72 -11 0 -15 -12 -15 -42 0 -32 3 -39 10 -28 8
13 10 12 10 -2 0 -10 -4 -18 -10 -18 -5 0 -10 -11 -10 -25 0 -30 16 -33 25 -5
3 11 11 20 16 20 5 0 3 -10 -6 -23 -15 -23 -12 -37 8 -37 5 0 6 7 3 16 -5 14
-4 15 9 4 13 -10 15 -47 15 -226 l0 -213 92 -3 c83 -3 89 -4 73 -18 -12 -9
-16 -10 -11 -2 6 10 -9 12 -68 9 -41 -2 -80 -1 -86 3 -6 4 -11 60 -11 143 -1
88 -5 135 -11 131 -7 -4 -7 0 0 12 12 23 13 146 1 139 -5 -3 -18 -1 -29 5 -20
11 -21 9 -19 -37 2 -26 7 -51 13 -55 7 -5 7 -8 -1 -8 -7 0 -13 -7 -13 -15 0
-8 6 -12 14 -9 8 3 17 1 20 -4 3 -5 -2 -9 -12 -8 -26 2 -31 -100 -5 -120 16
-13 17 -14 1 -8 -16 6 -18 -2 -18 -70 0 -70 2 -78 23 -87 l22 -10 -22 5 c-21
4 -23 1 -22 -37 1 -23 4 -33 6 -23 3 13 7 15 12 7 6 -9 26 -8 85 2 42 7 75 15
72 18 -3 2 14 3 37 0 36 -3 28 -6 -61 -22 -57 -10 -117 -21 -133 -24 l-29 -7
-2 2777 c-2 1527 -1 2778 3 2780 3 2 23 0 45 -5 59 -13 319 -59 404 -71 61 -9
85 -8 130 5 46 12 50 15 23 15 -18 1 -130 21 -250 47 -281 58 -414 84 -435 84
-17 0 -18 -142 -18 -2865z m1781 -2152 c-12 -20 -14 -14 -5 12 4 9 9 14 11 11
3 -2 0 -13 -6 -23z m-4 -45 c-3 -8 -6 -5 -6 6 -1 11 2 17 5 13 3 -3 4 -12 1
-19z m-4 -38 c3 -11 1 -23 -4 -26 -5 -3 -9 6 -9 20 0 31 6 34 13 6z m24 -97
c-3 -10 -5 -4 -5 12 0 17 2 24 5 18 2 -7 2 -21 0 -30z m-50 5 c-3 -8 -6 -5 -6
6 -1 11 2 17 5 13 3 -3 4 -12 1 -19z m-1600 -30 c-3 -7 -5 -2 -5 12 0 14 2 19
5 13 2 -7 2 -19 0 -25z m1585 -20 c-8 -8 -9 -4 -5 13 4 13 8 18 11 10 2 -7 -1
-18 -6 -23z m68 -23 c0 -8 -2 -15 -4 -15 -2 0 -6 7 -10 15 -3 8 -1 15 4 15 6
0 10 -7 10 -15z m-80 -25 c-6 -11 -8 -26 -4 -33 5 -8 4 -9 -4 -2 -13 11 -5 55
10 55 5 0 4 -9 -2 -20z m80 -39 c0 -18 -6 -31 -17 -36 -15 -5 -16 -4 -5 6 6 7
12 23 12 36 0 13 2 23 5 23 3 0 5 -13 5 -29z m-1643 -7 c-3 -3 -12 -4 -19 -1
-8 3 -5 6 6 6 11 1 17 -2 13 -5z m1503 -7 c0 -8 -7 -14 -15 -14 -16 0 -19 9
-8 20 11 11 23 8 23 -6z m77 -23 c-3 -3 -12 -4 -19 -1 -8 3 -5 6 6 6 11 1 17
-2 13 -5z m-112 -20 c-11 -3 -40 -9 -65 -15 -92 -22 -87 -22 -67 -5 11 8 24
13 31 10 7 -3 23 0 37 5 13 5 38 9 54 9 18 0 22 -2 10 -4z m-1465 -113 c0 -5
-7 -12 -16 -15 -14 -5 -15 -4 -4 9 14 17 20 19 20 6z m311 -58 c10 3 19 1 19
-4 0 -5 -15 -9 -32 -10 -18 0 -46 -2 -63 -4 l-30 -4 28 13 c15 7 24 16 20 20
-5 5 3 3 16 -4 12 -6 32 -10 42 -7z m99 7 c0 -5 -2 -10 -4 -10 -3 0 -8 5 -11
10 -3 6 -1 10 4 10 6 0 11 -4 11 -10z m-33 -6 c-3 -3 -12 -4 -19 -1 -8 3 -5 6
6 6 11 1 17 -2 13 -5z m-377 -19 c-7 -9 -15 -13 -17 -11 -7 7 7 26 19 26 6 0
6 -6 -2 -15z m50 -3 c0 -4 -9 -8 -19 -8 -11 0 -17 4 -15 8 3 4 12 8 20 8 8 0
14 -4 14 -8z"/>
<path d="M4151 7685 c-140 -31 -246 -88 -341 -184 -77 -78 -121 -150 -166
-270 -43 -114 -56 -197 -56 -356 0 -204 47 -388 139 -544 51 -86 179 -220 263
-276 149 -99 207 -114 500 -130 133 -8 163 1 291 79 143 87 223 179 297 341
72 161 97 372 68 573 -33 226 -108 372 -276 542 -90 91 -117 113 -190 148
-167 81 -372 111 -529 77z m254 -120 c59 -8 206 -69 231 -96 26 -29 15 -153
-24 -251 -48 -125 -108 -214 -94 -140 5 24 4 26 -12 13 -22 -19 -31 -8 -15 20
8 16 10 56 6 133 -6 120 -30 218 -70 277 -20 30 -28 34 -71 35 -26 1 -53 7
-59 14 -9 9 -4 10 23 6 19 -3 58 -8 85 -11z m-227 -60 c48 -55 105 -161 138
-257 26 -79 32 -143 12 -135 -7 2 -12 15 -10 28 1 17 -1 20 -7 11 -6 -10 -13
-6 -29 20 -51 82 -266 258 -314 258 -21 0 -23 13 -5 28 16 13 160 92 169 92 3
0 24 -20 46 -45z m706 -310 c22 -44 51 -105 62 -135 20 -50 21 -57 7 -80 -20
-34 -48 -54 -119 -83 -65 -28 -181 -54 -191 -43 -4 4 -2 16 5 26 14 22 3 27
-16 8 -10 -10 -12 -8 -10 7 2 11 37 54 79 95 51 51 84 94 103 135 28 61 29 76
8 160 l-11 40 21 -25 c11 -14 39 -61 62 -105z m-959 -17 c61 -13 107 -36 208
-101 76 -51 92 -67 61 -67 -8 0 -12 -5 -9 -10 7 -12 -13 -8 -102 16 -28 8 -76
14 -106 14 -59 0 -172 -30 -224 -60 l-32 -19 4 27 c22 125 38 208 42 215 5 8
82 1 158 -15z m510 -139 c59 -17 129 -90 149 -158 28 -94 20 -154 -28 -225
-38 -57 -147 -83 -219 -52 -41 17 -94 77 -120 135 -35 80 -9 208 55 268 44 42
93 51 163 32z m-358 -231 c-15 -5 -25 -13 -22 -18 3 -4 -3 -6 -14 -3 -13 3
-20 -2 -24 -17 -3 -12 -10 -19 -15 -16 -15 9 -22 -20 -9 -34 9 -10 9 -12 -3
-8 -8 3 -21 -1 -28 -8 -10 -11 -10 -14 -1 -14 7 0 9 -3 6 -7 -4 -3 -18 0 -32
7 -23 12 -26 11 -47 -16 -13 -16 -22 -32 -20 -37 1 -5 -2 -6 -7 -3 -12 8 -34
-21 -26 -34 15 -24 18 -70 9 -120 -4 -19 -4 -32 0 -29 4 4 9 16 11 28 16 85
101 194 191 247 62 37 65 24 5 -20 -28 -21 -64 -54 -80 -75 -36 -46 -101 -177
-101 -206 0 -11 -4 -26 -8 -33 -18 -27 -114 223 -104 269 3 17 91 83 149 113
38 19 136 44 173 44 25 0 25 0 -3 -10z m-40 -58 c-1 -21 -26 -36 -36 -23 -4 4
-4 7 -2 6 2 -2 10 6 18 17 18 25 22 25 20 0z m33 6 c0 -3 -4 -8 -10 -11 -5 -3
-10 -1 -10 4 0 6 5 11 10 11 6 0 10 -2 10 -4z m935 -183 c-8 -59 -19 -111 -23
-115 -8 -8 -131 7 -182 23 -89 28 -235 118 -218 134 6 6 62 -20 101 -48 16
-10 31 -17 34 -14 2 3 -8 12 -24 21 -30 15 -39 44 -19 59 7 6 6 7 -4 4 -17 -5
-50 10 -50 22 0 5 27 0 61 -10 72 -23 163 -24 238 -5 65 18 90 40 93 80 1 28
2 27 5 -7 2 -20 -3 -86 -12 -144z m-1055 93 c0 -2 -11 -3 -25 -2 -25 1 -31 7
-19 19 6 6 44 -9 44 -17z m-20 -14 c0 -13 -39 -46 -46 -39 -3 3 3 14 13 25 19
22 33 27 33 14z m720 -43 c0 -4 -7 -6 -15 -3 -8 4 -15 10 -15 15 0 4 7 6 15 3
8 -4 15 -10 15 -15z m-769 -6 c12 -15 12 -16 -6 -9 -15 5 -17 4 -8 -5 13 -13
7 -39 -9 -39 -6 0 -8 6 -5 13 3 8 1 20 -3 27 -18 29 9 40 31 13z m353 -44 c-4
-7 -7 -21 -8 -33 -1 -11 -7 -21 -13 -21 -17 0 -44 -40 -35 -51 4 -5 -1 -2 -10
5 -10 7 -18 10 -18 5 -1 -5 -5 -28 -9 -52 -7 -36 -6 -42 6 -38 8 3 18 6 23 6
5 0 10 8 13 18 2 9 4 -12 4 -48 1 -65 -12 -119 -24 -106 -11 11 -14 48 -4 41
5 -3 12 -1 16 5 3 5 -3 10 -14 10 -23 0 -36 -16 -22 -25 7 -3 7 -15 1 -30 -9
-23 -8 -24 16 -15 34 13 34 13 34 -12 0 -13 4 -29 9 -37 5 -8 7 29 4 93 -5 86
-2 119 12 166 10 33 21 57 25 55 5 -3 6 -60 3 -127 -5 -103 -2 -137 16 -212
12 -49 27 -96 34 -104 10 -13 8 -14 -18 -8 -38 9 -168 73 -199 97 -23 18 -24
20 -10 86 28 143 82 280 125 318 12 11 19 14 15 8 -4 -7 -3 -13 2 -13 6 0 12
7 16 15 3 8 8 15 11 15 4 0 3 -5 -1 -11z m266 -124 c69 -106 201 -208 286
-221 24 -3 44 -11 44 -17 0 -6 14 2 32 19 31 29 31 29 11 2 -20 -26 -100 -98
-110 -98 -2 0 -14 5 -26 11 -21 9 -21 9 -4 -5 18 -14 16 -16 -32 -40 -66 -34
-92 -33 -130 6 -57 58 -163 300 -160 365 1 17 3 21 6 11 7 -26 22 -22 29 7 3
14 7 25 9 25 1 0 22 -29 45 -65z m-299 32 c-10 -9 -11 -8 -5 6 3 10 9 15 12
12 3 -3 0 -11 -7 -18z m-6 -36 c-8 -14 -35 -14 -35 0 0 5 4 8 9 4 5 -3 13 0
16 6 4 5 9 8 12 5 3 -2 2 -9 -2 -15z m-30 -31 c3 -5 1 -10 -4 -10 -6 0 -11 5
-11 10 0 6 2 10 4 10 3 0 8 -4 11 -10z m241 -370 c13 0 24 -4 24 -9 0 -4 -19
-5 -42 0 -24 4 -46 8 -50 9 -5 0 -8 4 -8 10 0 6 9 6 26 0 14 -6 36 -10 50 -10z"/>
<path d="M4608 7445 c2 -14 8 -28 13 -31 10 -6 11 2 3 34 -9 30 -22 28 -16 -3z"/>
<path d="M4606 7338 c-4 -37 -12 -70 -17 -73 -12 -8 -12 -25 0 -25 12 0 33
101 29 137 -2 16 -7 0 -12 -39z"/>
<path d="M4541 7264 c0 -11 3 -14 6 -6 3 7 2 16 -1 19 -3 4 -6 -2 -5 -13z"/>
<path d="M4563 7192 c-7 -4 -9 -13 -4 -21 6 -10 10 -9 15 5 8 20 4 25 -11 16z"/>
<path d="M4150 7486 c0 -2 8 -10 18 -17 15 -13 16 -12 3 4 -13 16 -21 21 -21
13z"/>
<path d="M4202 7425 c7 -21 59 -115 63 -115 3 0 -6 21 -19 48 -25 47 -51 86
-44 67z"/>
<path d="M4274 7275 c4 -16 12 -34 17 -40 5 -5 4 6 -2 25 -15 45 -24 54 -15
15z"/>
<path d="M4301 7184 c0 -11 3 -14 6 -6 3 7 2 16 -1 19 -3 4 -6 -2 -5 -13z"/>
<path d="M4846 7227 c3 -10 9 -15 12 -12 3 3 0 11 -7 18 -10 9 -11 8 -5 -6z"/>
<path d="M4870 7171 c0 -6 4 -13 10 -16 6 -3 7 1 4 9 -7 18 -14 21 -14 7z"/>
<path d="M4898 7048 c11 -14 10 -17 -5 -21 -16 -4 -16 -5 -1 -6 25 -2 30 15
10 30 -15 13 -16 12 -4 -3z"/>
<path d="M4930 7020 c-8 -5 -16 -14 -16 -20 -3 -23 -5 -24 -13 -11 -7 11 -12
11 -31 -2 -14 -10 -17 -16 -9 -19 8 -3 -3 -16 -26 -31 -22 -15 -37 -27 -33
-27 12 0 125 69 137 84 17 20 11 38 -9 26z m-35 -40 c3 -5 -1 -10 -10 -10 -9
0 -13 5 -10 10 3 6 8 10 10 10 2 0 7 -4 10 -10z"/>
<path d="M4700 6958 c-12 -22 -12 -22 6 -6 10 10 15 20 12 24 -4 3 -12 -5 -18
-18z"/>
<path d="M4730 6890 c-18 -12 -2 -12 25 0 13 6 15 9 5 9 -8 0 -22 -4 -30 -9z"/>
<path d="M4321 6974 c-58 -41 -78 -158 -38 -229 39 -70 142 -99 142 -40 0 20
-5 25 -26 25 -15 0 -38 9 -53 21 -36 28 -37 89 -1 124 28 29 45 31 84 10 41
-21 74 -127 48 -155 -9 -10 -9 -11 1 -6 13 8 17 -14 5 -30 -5 -5 4 4 19 20 33
36 45 100 28 151 -32 97 -143 155 -209 109z"/>
<path d="M3947 6735 c-15 -14 -24 -25 -19 -25 9 0 52 37 52 45 0 8 -4 6 -33
-20z"/>
<path d="M3796 6571 c-4 -6 -4 -20 -1 -31 6 -18 8 -19 22 -4 14 14 14 17 1 31
-11 10 -18 12 -22 4z"/>
<path d="M4931 6604 c0 -11 3 -14 6 -6 3 7 2 16 -1 19 -3 4 -6 -2 -5 -13z"/>
<path d="M4789 6583 c-13 -16 -12 -17 4 -4 9 7 17 15 17 17 0 8 -8 3 -21 -13z"/>
<path d="M4880 6576 c0 -2 7 -9 15 -16 13 -11 14 -10 9 4 -5 14 -24 23 -24 12z"/>
<path d="M4940 6570 c0 -5 5 -10 11 -10 5 0 7 5 4 10 -3 6 -8 10 -11 10 -2 0
-4 -4 -4 -10z"/>
<path d="M4820 6560 c0 -5 5 -10 11 -10 5 0 7 5 4 10 -3 6 -8 10 -11 10 -2 0
-4 -4 -4 -10z"/>
<path d="M4747 6536 c31 -21 75 -35 143 -46 89 -14 90 -13 90 15 0 16 -6 25
-15 25 -8 0 -15 -5 -15 -11 0 -5 5 -7 10 -4 6 3 10 1 10 -4 0 -6 -9 -11 -21
-11 -15 0 -19 5 -15 15 3 8 1 15 -4 15 -6 0 -10 -7 -10 -16 0 -14 -7 -15 -42
-9 -76 12 -110 23 -104 33 2 4 -7 8 -21 8 -22 2 -23 1 -6 -10z"/>
<path d="M4893 6525 c0 -8 4 -12 9 -9 5 3 6 10 3 15 -9 13 -12 11 -12 -6z"/>
<path d="M4176 6511 c-10 -11 -16 -26 -13 -33 3 -8 9 -3 15 14 6 14 19 28 29
31 14 4 14 5 2 6 -9 0 -24 -8 -33 -18z"/>
<path d="M4157 6363 c-22 -6 -19 -46 3 -51 10 -2 16 7 17 28 1 16 1 29 0 29
-1 -1 -10 -3 -20 -6z m13 -17 c0 -3 -4 -8 -10 -11 -5 -3 -10 -1 -10 4 0 6 5
11 10 11 6 0 10 -2 10 -4z"/>
<path d="M4100 6310 c0 -5 5 -10 10 -10 6 0 10 5 10 10 0 6 -4 10 -10 10 -5 0
-10 -4 -10 -10z"/>
<path d="M4100 6276 c0 -2 7 -7 16 -10 8 -3 12 -2 9 4 -6 10 -25 14 -25 6z"/>
<path d="M4156 6167 c3 -10 9 -15 12 -12 3 3 0 11 -7 18 -10 9 -11 8 -5 -6z"/>
<path d="M4095 6150 c3 -5 8 -10 11 -10 2 0 4 5 4 10 0 6 -5 10 -11 10 -5 0
-7 -4 -4 -10z"/>
<path d="M4206 6135 c4 -8 8 -15 10 -15 2 0 4 7 4 15 0 8 -4 15 -10 15 -5 0
-7 -7 -4 -15z"/>
<path d="M4164 6106 c11 -9 24 -16 30 -16 12 0 7 5 -24 19 -24 11 -24 11 -6
-3z"/>
<path d="M4220 6090 c6 -11 12 -20 14 -20 2 0 2 9 -1 20 -3 11 -9 20 -15 20
-5 0 -4 -9 2 -20z"/>
<path d="M4450 6456 c0 -8 5 -18 11 -22 8 -5 8 -9 -1 -14 -9 -5 -9 -9 -1 -14
6 -4 11 -2 11 5 0 7 7 4 16 -7 15 -18 15 -18 4 3 -5 12 -15 25 -20 28 -6 4 -8
10 -5 15 3 5 1 11 -5 15 -5 3 -10 -1 -10 -9z"/>
<path d="M4431 6414 c0 -11 3 -14 6 -6 3 7 2 16 -1 19 -3 4 -6 -2 -5 -13z"/>
<path d="M4457 6373 c-10 -9 -9 -33 1 -33 4 0 8 9 8 20 0 23 0 22 -9 13z"/>
<path d="M4508 6369 c7 -9 11 -18 9 -20 -1 -2 12 -18 30 -36 46 -44 40 -27 -9
27 -23 25 -36 38 -30 29z"/>
<path d="M4590 6265 c0 -5 30 -33 98 -90 17 -15 32 -23 31 -18 0 9 -129 117
-129 108z"/>
<path d="M4619 6201 c8 -5 10 -14 6 -22 -6 -11 -5 -11 5 -2 14 12 6 33 -13 33
-8 0 -7 -3 2 -9z"/>
<path d="M4587 6179 c7 -7 15 -10 18 -7 3 3 -2 9 -12 12 -14 6 -15 5 -6 -5z"/>
<path d="M4612 6140 c-7 -12 -8 -20 -2 -20 5 0 10 5 10 11 0 6 7 3 16 -5 24
-24 30 -19 8 7 -10 12 -19 23 -19 24 -1 1 -6 -7 -13 -17z"/>
<path d="M4680 6139 c0 -5 5 -7 10 -4 6 3 10 8 10 11 0 2 -4 4 -10 4 -5 0 -10
-5 -10 -11z"/>
<path d="M4700 6109 c0 -5 5 -7 10 -4 6 3 10 8 10 11 0 2 -4 4 -10 4 -5 0 -10
-5 -10 -11z"/>
<path d="M4625 6080 c-7 -12 2 -12 30 0 19 8 19 9 -2 9 -12 1 -25 -3 -28 -9z"/>
<path d="M3830 7648 c-132 -90 -202 -175 -243 -295 -21 -62 -1 -42 33 33 16
36 38 77 50 92 43 55 124 133 171 163 27 17 49 33 49 35 0 10 -18 1 -60 -28z"/>
<path d="M3577 6024 c4 -386 2 -446 -11 -479 -28 -65 -11 -48 27 27 35 71 89
148 154 221 45 51 154 137 174 137 9 0 21 6 27 13 7 9 -2 21 -36 47 -154 118
-281 286 -327 435 -11 33 -12 -37 -8 -401z m78 95 c4 -6 26 -24 48 -41 41 -30
41 -30 12 -24 -22 5 -26 4 -15 -4 8 -5 24 -10 35 -10 21 -1 55 -22 55 -35 0
-4 -7 -2 -15 5 -8 7 -15 10 -15 6 0 -4 -13 0 -30 9 -16 8 -31 15 -34 15 -3 0
-4 -20 -3 -45 1 -25 5 -45 9 -45 4 0 4 -7 1 -17 -4 -11 -3 -14 6 -9 6 4 9 16
6 27 -4 12 -2 19 6 19 10 0 10 3 1 12 -15 15 -16 38 -2 38 6 0 9 -3 9 -7 -3
-19 2 -33 11 -33 5 0 7 7 3 16 -5 14 -3 15 18 3 13 -7 26 -13 29 -14 10 -1 54
-35 49 -38 -58 -42 -94 -71 -141 -115 l-56 -53 -2 167 c0 92 -3 171 -6 176 -3
4 -1 8 5 8 5 0 13 -5 16 -11z m280 -159 c3 -5 1 -10 -4 -10 -6 0 -11 5 -11 10
0 6 2 10 4 10 3 0 8 -4 11 -10z"/>
<path d="M3651 6089 c-1 -19 25 -33 34 -19 4 6 0 10 -9 10 -8 0 -17 6 -19 13
-4 7 -6 6 -6 -4z"/>
<path d="M3659 6047 c14 -14 15 -30 1 -22 -6 4 -10 -7 -10 -27 1 -27 2 -30 11
-16 5 10 9 19 8 20 -1 2 3 13 9 24 10 19 9 23 -10 27 -16 4 -18 3 -9 -6z"/>
<path d="M3670 5980 c-1 -8 -3 -25 -4 -37 -1 -12 1 -20 5 -18 4 3 10 -2 13
-11 4 -11 1 -14 -12 -10 -14 5 -17 -1 -19 -34 -2 -45 8 -49 45 -18 17 13 20
19 9 15 -11 -4 -16 -3 -12 3 3 6 13 10 22 10 9 0 13 6 10 14 -7 18 18 42 28
26 3 -5 1 -10 -4 -10 -6 0 -11 -5 -11 -11 0 -6 13 0 30 14 16 14 35 27 42 30
18 7 -12 29 -30 22 -8 -3 -10 0 -6 6 4 8 -1 9 -17 4 -42 -13 -39 -27 5 -27 14
0 23 -5 20 -10 -3 -5 -14 -6 -25 -3 -20 7 -48 -14 -50 -37 -1 -7 -9 12 -19 42
-11 30 -19 48 -20 40z"/>
<path d="M5073 6121 c-53 -71 -155 -160 -232 -204 l-43 -25 53 -40 c78 -57
213 -202 243 -259 l25 -48 3 323 c2 177 3 322 3 322 0 0 -24 -31 -52 -69z m9
-100 c-5 -34 -26 -61 -47 -60 -5 0 0 7 13 16 30 21 28 37 -3 17 -17 -11 -25
-12 -25 -5 0 7 -5 9 -11 5 -8 -5 -8 -9 1 -14 8 -5 10 -18 6 -33 -6 -26 7 -46
19 -27 3 5 1 10 -5 10 -6 0 -8 5 -5 10 9 15 27 0 21 -17 -4 -9 -1 -13 6 -10 7
2 12 13 10 25 -2 11 1 23 7 26 6 4 9 -37 9 -114 0 -66 -4 -120 -9 -120 -4 0
-25 21 -46 48 -21 26 -41 49 -46 50 -4 2 -14 10 -21 18 -8 8 -19 14 -25 14 -6
0 -8 7 -5 15 4 10 0 15 -11 15 -10 0 -13 -4 -9 -12 6 -9 3 -9 -9 0 -15 13 -12
18 31 52 26 21 66 58 90 82 54 56 72 58 64 9z"/>
<path d="M5042 6020 c-7 -11 -9 -20 -4 -20 4 0 13 9 20 20 7 11 9 20 4 20 -4
0 -13 -9 -20 -20z"/>
<path d="M4950 5934 c-19 -19 -29 -34 -23 -34 6 0 14 6 17 13 4 6 4 2 2 -11
-2 -12 0 -20 5 -16 5 3 9 11 9 19 0 8 5 17 10 20 11 7 9 -23 -3 -42 -5 -9 -2
-13 8 -13 9 0 13 -5 10 -10 -4 -6 -11 -7 -17 -4 -7 4 -8 2 -4 -4 5 -8 13 -8
31 0 19 8 22 14 14 24 -8 9 -5 11 10 7 16 -4 21 -1 21 13 0 16 -2 17 -10 4 -7
-12 -10 -12 -10 -1 0 8 -6 11 -16 7 -12 -4 -15 -2 -11 9 4 8 2 17 -3 20 -16
10 -11 25 5 19 8 -4 15 -4 15 -1 0 19 -31 9 -60 -19z"/>
<path d="M5050 5880 c0 -11 -5 -20 -10 -20 -6 0 -15 -10 -20 -22 -5 -13 -9
-17 -9 -10 -1 6 -6 12 -12 12 -8 0 -8 -5 1 -15 7 -8 19 -15 27 -15 8 0 11 -4
8 -10 -3 -5 0 -19 8 -31 11 -15 16 -17 20 -7 2 7 1 20 -3 28 -4 8 -4 36 0 63
4 26 3 47 -2 47 -4 0 -8 -9 -8 -20z m4 -96 c3 -8 2 -12 -4 -9 -6 3 -10 10 -10
16 0 14 7 11 14 -7z"/>
<path d="M4150 5884 c-158 -53 -253 -108 -338 -197 -155 -164 -227 -371 -226
-647 1 -154 19 -252 71 -384 58 -148 177 -298 302 -379 143 -93 206 -107 448
-101 l188 6 104 50 c93 45 115 61 201 147 79 79 105 112 143 187 25 50 58 135
73 190 24 88 27 118 28 264 1 192 -18 287 -84 425 -100 205 -297 376 -496 431
-85 23 -353 28 -414 8z m190 -94 c0 -5 -12 -10 -27 -9 l-28 1 25 8 c14 4 26 8
28 9 1 1 2 -3 2 -9z m193 -21 c45 -13 67 -25 67 -35 0 -8 -4 -12 -10 -9 -5 3
-10 2 -10 -3 0 -6 7 -12 15 -16 18 -6 20 -42 3 -52 -7 -5 -9 -2 -5 9 4 11 2
14 -9 10 -11 -4 -12 -9 -3 -19 6 -8 15 -11 20 -8 14 8 3 -97 -17 -158 -5 -16
-8 -18 -15 -7 -7 9 -8 5 -3 -13 5 -22 -5 -57 -33 -110 -2 -5 -1 -8 2 -8 12 0
55 107 71 177 9 41 14 101 12 142 -1 39 -1 71 3 71 31 0 40 -124 15 -215 -17
-62 -58 -156 -86 -195 -24 -33 -54 -42 -43 -12 6 15 5 15 -10 3 -10 -8 -17 -9
-17 -3 0 6 4 13 8 16 11 7 17 75 16 171 -1 64 -8 96 -33 161 -17 45 -42 93
-55 107 l-24 25 37 -5 c20 -2 66 -13 104 -24z m-357 -56 c77 -78 195 -346 165
-376 -10 -10 -19 -4 -48 28 -134 152 -217 217 -324 254 l-50 18 49 36 c59 44
133 87 149 87 6 0 33 -21 59 -47z m684 -197 c0 -5 -8 -2 -17 5 -16 13 -17 12
-4 -3 7 -10 17 -15 22 -13 10 7 48 -51 97 -147 l34 -67 -21 -30 c-30 -42 -135
-119 -179 -130 -129 -35 -147 -38 -157 -27 -30 30 -24 45 31 93 56 48 120 138
149 208 19 46 18 120 -1 152 -8 12 -14 26 -14 30 0 10 59 -60 60 -71z m-934
-151 c49 -9 113 -27 142 -40 59 -27 132 -81 132 -97 0 -6 -7 -4 -17 3 -11 10
-14 10 -9 2 4 -7 3 -13 -3 -13 -5 0 -13 5 -16 10 -3 6 -11 10 -17 10 -7 0 -7
-4 0 -13 9 -10 -14 -12 -111 -13 -113 0 -128 -2 -207 -32 -47 -18 -91 -41 -98
-50 -12 -15 -13 -13 -7 18 8 43 45 200 50 218 6 16 54 15 161 -3z m532 -100
c66 -28 100 -71 128 -164 15 -50 19 -123 7 -135 -5 -4 -8 -11 -8 -14 -1 -24
-30 -72 -41 -68 -8 3 -13 0 -11 -7 4 -20 -87 -59 -138 -59 -93 0 -174 74 -195
178 -16 75 -6 133 33 191 55 81 143 112 225 78z m552 -386 c-5 -38 -15 -91
-21 -119 l-11 -50 -47 0 c-101 0 -282 63 -331 115 -30 32 -26 31 45 -5 70 -36
71 -36 78 -7 6 20 5 21 -8 4 -11 -16 -16 -16 -34 -5 -13 8 -19 19 -15 33 3 14
-3 25 -23 38 -17 12 -20 16 -8 12 100 -33 222 -25 307 19 33 17 49 21 52 13 3
-7 3 -2 1 10 -3 12 -1 24 5 28 6 4 10 21 9 39 -1 17 0 40 1 51 2 11 5 -9 7
-44 2 -35 -1 -95 -7 -132z m-900 131 c-8 -5 -23 -10 -33 -10 -10 0 -15 -5 -12
-10 4 -6 11 -8 16 -5 5 4 12 0 15 -8 3 -8 -24 -43 -69 -88 -78 -79 -133 -172
-158 -268 -7 -28 -16 -51 -19 -51 -12 0 -80 125 -97 176 -9 29 -13 62 -9 75 7
25 94 101 159 139 49 29 143 59 187 59 26 1 31 -2 20 -9z m528 -160 c7 -11 9
-20 4 -20 -4 0 -13 9 -20 20 -7 11 -9 20 -4 20 4 0 13 -9 20 -20z m-430 -105
c-8 -19 -14 -22 -20 -13 -6 10 -8 8 -8 -4 0 -10 6 -18 14 -18 9 0 12 -7 9 -20
-6 -24 -21 -27 -19 -4 0 9 -5 19 -12 21 -7 3 -10 -1 -6 -11 3 -9 2 -16 -3 -16
-5 0 -17 -16 -26 -35 -10 -22 -13 -35 -6 -35 6 0 9 -6 6 -14 -4 -9 2 -13 19
-13 25 0 33 12 12 19 -7 3 -6 7 5 11 15 6 17 0 15 -46 -3 -44 -7 -55 -31 -73
-23 -18 -25 -23 -11 -28 18 -7 37 1 29 14 -3 5 -1 11 4 14 5 4 9 -14 9 -39 -1
-25 -5 -48 -10 -51 -4 -3 -8 0 -8 5 0 6 -5 11 -11 11 -8 0 -8 -5 1 -15 10 -12
10 -15 0 -15 -8 0 -10 -3 -7 -7 4 -3 16 2 27 12 17 16 20 16 20 2 0 -8 3 -23
7 -33 5 -13 3 -15 -8 -9 -8 5 -7 1 4 -12 9 -11 15 -23 12 -26 -3 -4 0 -3 7 3
9 7 8 16 -1 37 -31 68 -23 309 13 358 10 14 11 3 3 -61 -13 -114 -3 -227 27
-309 14 -38 24 -71 22 -72 -5 -6 -177 55 -201 71 -18 12 -24 23 -21 39 3 12 8
49 11 82 9 76 49 205 75 238 11 14 20 28 20 32 0 9 31 34 42 35 4 0 2 -11 -4
-25z m309 -109 c31 -43 100 -102 154 -133 50 -29 137 -56 156 -49 13 5 14 4 3
-9 -7 -8 -17 -12 -23 -8 -5 3 -7 2 -4 -4 16 -25 -147 -129 -187 -119 -27 7
-82 63 -72 73 4 5 13 0 21 -10 12 -16 13 -16 19 -1 3 9 1 23 -5 30 -9 11 -7
15 5 20 9 3 16 14 15 23 0 10 -2 11 -6 4 -7 -18 -23 -16 -23 2 0 19 -9 19 -32
-2 -10 -9 -18 -12 -18 -6 0 5 -7 18 -15 29 -14 16 -14 14 0 -14 13 -27 19 -31
30 -22 15 12 35 6 35 -12 0 -5 -8 -8 -17 -4 -12 4 -10 0 5 -10 12 -9 22 -21
22 -26 0 -6 -6 -6 -14 1 -8 6 -19 10 -26 9 -13 -3 -78 105 -102 172 -20 55
-40 151 -33 158 3 3 10 -9 16 -26 15 -45 27 -40 24 10 l-3 41 24 -39 c12 -21
35 -56 51 -78z m-325 5 c-4 -11 -7 -11 -10 -2 -3 9 -10 7 -26 -6 -21 -18 -21
-18 -3 3 20 24 48 28 39 5z m678 -145 c0 -2 -8 -10 -17 -17 -16 -13 -17 -12
-4 4 13 16 21 21 21 13z m-447 -233 c-13 -2 -35 -2 -50 0 -16 2 -5 4 22 4 28
0 40 -2 28 -4z"/>
<path d="M4539 5633 c-12 -16 -12 -17 2 -6 9 7 20 9 24 5 5 -4 5 -1 1 6 -9 16
-11 15 -27 -5z"/>
<path d="M4511 5608 c-1 -24 11 -28 34 -12 10 8 14 14 8 14 -7 0 -15 -5 -19
-12 -5 -8 -10 -6 -15 8 -6 16 -8 16 -8 2z"/>
<path d="M4557 5579 c7 -7 15 -10 18 -7 3 3 -2 9 -12 12 -14 6 -15 5 -6 -5z"/>
<path d="M4529 5568 c-6 -21 -5 -38 2 -38 5 0 9 9 9 20 0 16 -7 28 -11 18z"/>
<path d="M4522 5500 c0 -14 2 -19 5 -12 2 6 2 18 0 25 -3 6 -5 1 -5 -13z"/>
<path d="M4565 5510 c-3 -5 -1 -10 4 -10 6 0 11 5 11 10 0 6 -2 10 -4 10 -3 0
-8 -4 -11 -10z"/>
<path d="M4525 5459 c-11 -16 -1 -19 13 -3 7 8 8 14 3 14 -5 0 -13 -5 -16 -11z"/>
<path d="M4521 5414 c0 -11 3 -14 6 -6 3 7 2 16 -1 19 -3 4 -6 -2 -5 -13z"/>
<path d="M4126 5700 c21 -22 40 -40 42 -40 9 0 -52 69 -65 74 -9 4 1 -12 23
-34z"/>
<path d="M4250 5501 c0 -6 4 -13 10 -16 6 -3 7 1 4 9 -7 18 -14 21 -14 7z"/>
<path d="M4291 5424 c0 -11 3 -14 6 -6 3 7 2 16 -1 19 -3 4 -6 -2 -5 -13z"/>
<path d="M4840 5478 c0 -4 4 -8 9 -8 6 0 12 4 15 8 3 5 -1 9 -9 9 -8 0 -15 -4
-15 -9z"/>
<path d="M4847 5443 c-13 -12 -7 -22 11 -17 13 5 14 4 3 -4 -8 -6 -10 -15 -6
-23 6 -9 10 -8 15 7 11 31 -5 56 -23 37z"/>
<path d="M4885 5440 c3 -5 8 -10 11 -10 2 0 4 5 4 10 0 6 -5 10 -11 10 -5 0
-7 -4 -4 -10z"/>
<path d="M4890 5409 c0 -5 5 -7 10 -4 6 3 10 2 10 -4 0 -5 -4 -13 -10 -16 -5
-3 -10 -12 -10 -18 0 -8 3 -7 9 2 11 17 31 6 31 -19 0 -10 6 -20 14 -23 12 -5
13 -1 4 24 -5 16 -13 29 -18 29 -4 0 -10 9 -13 20 -5 21 -27 28 -27 9z"/>
<path d="M4836 5391 c4 -17 3 -21 -6 -16 -9 6 -11 4 -5 -4 5 -9 11 -9 17 -3 7
7 6 16 -1 29 -11 16 -11 15 -5 -6z"/>
<path d="M4860 5365 c0 -8 4 -15 10 -15 5 0 7 7 4 15 -4 8 -8 15 -10 15 -2 0
-4 -7 -4 -15z"/>
<path d="M4900 5345 c-17 -21 -8 -50 18 -53 25 -4 29 10 8 28 -8 6 -12 18 -9
26 7 18 -1 18 -17 -1z m20 -36 c0 -6 -4 -7 -10 -4 -5 3 -10 11 -10 16 0 6 5 7
10 4 6 -3 10 -11 10 -16z"/>
<path d="M4792 5330 c-8 -14 -9 -20 -1 -20 6 0 8 -8 5 -17 -6 -17 -5 -17 8 0
12 15 14 16 20 2 3 -8 1 -15 -4 -15 -6 0 -10 -4 -10 -10 0 -16 17 -12 24 6 7
19 -12 47 -26 38 -6 -4 -8 2 -3 15 8 26 3 27 -13 1z"/>
<path d="M4826 5342 c-4 -7 -3 -12 2 -12 11 0 32 -45 32 -68 0 -15 -2 -15 -10
-2 -8 13 -10 12 -10 -3 0 -14 5 -17 23 -12 12 4 26 11 32 16 18 18 28 8 10
-11 -10 -11 -21 -17 -25 -15 -4 3 -11 -3 -14 -12 -4 -10 -10 -13 -14 -8 -4 6
-18 10 -31 10 -13 0 -26 6 -29 13 -3 11 0 12 17 3 25 -14 28 -3 4 15 -21 16
-37 18 -28 4 3 -5 -1 -10 -9 -10 -10 0 -13 6 -10 18 5 15 4 15 -10 -2 -8 -10
-29 -34 -46 -52 -17 -19 -26 -34 -21 -34 4 0 14 7 21 15 7 8 16 13 20 10 4 -3
10 4 13 15 6 22 32 27 43 8 5 -8 2 -9 -10 -5 -12 5 -16 2 -14 -11 2 -9 8 -20
13 -25 6 -4 1 -15 -14 -27 -22 -19 -25 -19 -41 -5 -15 14 -18 13 -28 -10 -9
-20 -9 -25 3 -25 9 0 12 6 9 15 -4 8 -1 15 5 15 6 0 11 -4 11 -10 0 -21 31 -8
116 49 92 60 142 106 130 118 -3 4 -13 -3 -22 -15 -8 -12 -20 -20 -25 -16 -5
3 -17 0 -25 -7 -16 -13 -16 -14 -32 24 -7 16 -9 33 -6 39 4 6 2 8 -4 4 -5 -3
-12 -1 -14 6 -3 9 -6 9 -12 0z m8 -143 c-3 -5 -9 -7 -14 -4 -5 3 -11 1 -15 -5
-9 -14 -25 -2 -19 14 3 8 15 11 29 8 14 -2 22 -8 19 -13z"/>
<path d="M4871 5324 c0 -11 3 -14 6 -6 3 7 2 16 -1 19 -3 4 -6 -2 -5 -13z"/>
<path d="M3880 5342 c0 -4 12 -8 28 -9 23 -1 24 -1 7 7 -26 11 -35 12 -35 2z"/>
<path d="M4015 5300 c3 -5 14 -10 23 -10 15 0 15 2 2 10 -20 13 -33 13 -25 0z"/>
<path d="M4368 5203 c-38 -6 -94 -61 -106 -105 -15 -55 2 -126 40 -165 26 -27
40 -33 73 -33 23 0 50 7 61 16 19 15 19 16 -1 9 -14 -4 -9 4 14 24 19 17 30
31 23 31 -6 0 -14 -5 -18 -11 -9 -15 -98 -6 -119 11 -9 7 -15 29 -15 52 0 77
84 117 133 64 31 -34 54 -113 38 -138 -10 -17 -10 -17 8 -6 23 14 31 37 31 98
0 56 -26 108 -70 138 -33 22 -39 23 -92 15z"/>
<path d="M4557 4943 c-4 -3 -7 -11 -7 -17 0 -6 5 -5 12 2 6 6 9 14 7 17 -3 3
-9 2 -12 -2z"/>
<path d="M4484 4918 l-19 -23 23 19 c12 11 22 21 22 23 0 8 -8 2 -26 -19z"/>
<path d="M4260 4896 c0 -2 8 -10 18 -17 15 -13 16 -12 3 4 -13 16 -21 21 -21
13z"/>
<path d="M4915 4873 c11 -3 24 -10 28 -17 6 -7 7 -6 4 4 -2 8 -14 16 -28 17
-19 1 -20 1 -4 -4z"/>
<path d="M4963 4861 c0 -11 5 -18 9 -15 4 3 5 11 1 19 -7 21 -12 19 -10 -4z"/>
<path d="M4868 4863 c6 -2 12 -9 12 -15 0 -6 -7 -8 -15 -4 -8 3 -15 1 -15 -4
0 -6 5 -10 11 -10 5 0 7 -5 3 -12 -4 -7 -3 -8 4 -4 7 4 12 2 12 -5 0 -8 3 -9
13 0 8 6 16 8 19 5 3 -3 5 3 5 13 -2 21 -26 43 -47 42 -10 0 -11 -2 -2 -6z
m28 -40 c-10 -10 -19 5 -10 18 6 11 8 11 12 0 2 -7 1 -15 -2 -18z"/>
<path d="M4706 4848 c3 -4 10 -5 16 -2 6 4 15 0 20 -7 8 -12 9 -11 5 1 -2 8
-13 16 -25 16 -12 1 -19 -3 -16 -8z"/>
<path d="M4764 4849 c-7 -12 12 -29 34 -29 6 0 12 5 12 11 0 6 -7 8 -16 5 -12
-4 -15 -2 -10 9 6 17 -9 21 -20 4z"/>
<path d="M4810 4852 c16 -8 20 -39 7 -59 -9 -15 -61 -18 -52 -3 3 5 13 6 23 3
14 -5 15 -3 5 7 -10 11 -15 11 -27 1 -8 -7 -20 -10 -26 -6 -5 3 -10 2 -10 -3
0 -17 91 -43 170 -49 41 -3 73 -3 70 0 -3 3 -23 6 -45 8 -53 4 -60 8 -38 25
24 18 37 18 30 0 -4 -10 -1 -13 8 -9 8 3 12 9 9 14 -7 11 24 44 33 35 4 -3 1
-12 -5 -18 -7 -7 -12 -19 -12 -27 0 -9 7 -3 15 13 19 36 5 57 -22 35 -47 -37
-61 -40 -88 -17 -16 14 -23 28 -19 40 4 14 0 18 -18 17 -16 0 -19 -2 -8 -7z
m49 -65 c6 -8 8 -17 4 -20 -10 -11 -53 -8 -53 4 0 6 10 8 23 5 12 -3 16 -3 10
0 -15 6 -17 24 -4 24 5 0 14 -6 20 -13z"/>
<path d="M4056 4968 c3 -4 2 -13 -2 -19 -5 -8 -9 -8 -14 1 -5 9 -9 9 -14 1 -4
-6 -2 -11 4 -11 6 0 -8 -15 -31 -33 -24 -18 -56 -50 -71 -72 -36 -51 -56 -89
-26 -50 31 40 126 136 161 160 32 23 34 31 8 31 -11 0 -17 -4 -15 -8z"/>
<path d="M3859 4913 c-13 -16 -12 -17 4 -4 16 13 21 21 13 21 -2 0 -10 -8 -17
-17z"/>
<path d="M3925 4889 c-4 -6 -4 -13 -1 -16 3 -4 6 -1 6 6 0 7 5 9 12 5 7 -4 8
-3 4 4 -9 15 -13 15 -21 1z"/>
<path d="M3856 4735 c-9 -26 -7 -32 5 -12 6 10 9 21 6 23 -2 3 -7 -2 -11 -11z"/>
<path d="M3825 4660 c3 -5 8 -10 11 -10 2 0 4 5 4 10 0 6 -5 10 -11 10 -5 0
-7 -4 -4 -10z"/>
<path d="M4143 4573 c-10 -4 -9 -8 1 -19 18 -18 26 -18 26 0 0 18 -11 25 -27
19z"/>
<path d="M4102 4530 c0 -14 2 -19 5 -12 2 6 2 18 0 25 -3 6 -5 1 -5 -13z"/>
<path d="M4128 4519 c4 -28 6 -29 20 -15 13 12 13 18 2 30 -19 24 -27 19 -22
-15z"/>
<path d="M4095 4460 c3 -5 8 -10 11 -10 2 0 4 5 4 10 0 6 -5 10 -11 10 -5 0
-7 -4 -4 -10z"/>
<path d="M4134 4448 c1 -7 13 -14 27 -16 18 -2 21 -1 9 7 -8 5 -17 8 -21 5 -4
-2 -10 1 -12 6 -3 6 -4 5 -3 -2z"/>
<path d="M4471 4661 c13 -24 52 -74 87 -111 34 -38 62 -72 62 -77 0 -5 7 -10
15 -10 23 0 18 12 -18 40 -19 14 -60 61 -92 104 -76 100 -83 108 -54 54z"/>
<path d="M4430 4656 c0 -2 7 -7 16 -10 8 -3 12 -2 9 4 -6 10 -25 14 -25 6z"/>
<path d="M4445 4590 c3 -5 11 -10 16 -10 6 0 7 5 4 10 -3 6 -11 10 -16 10 -6
0 -7 -4 -4 -10z"/>
<path d="M4465 4560 c-3 -5 1 -10 10 -10 9 0 13 5 10 10 -3 6 -8 10 -10 10 -2
0 -7 -4 -10 -10z"/>
<path d="M4526 4509 c-11 -11 -15 -19 -9 -19 12 0 38 28 32 34 -2 2 -13 -5
-23 -15z"/>
<path d="M4554 4494 c-18 -14 -18 -15 4 -4 12 6 22 13 22 15 0 8 -5 6 -26 -11z"/>
<path d="M4673 4456 c13 -10 15 -16 6 -21 -8 -6 -7 -10 5 -17 10 -6 20 -7 23
-4 4 3 1 6 -5 6 -7 0 -12 5 -12 11 0 6 7 9 15 5 28 -10 15 3 -17 19 -26 12
-29 13 -15 1z"/>
<path d="M4730 4426 c0 -2 7 -6 15 -10 8 -3 15 -1 15 4 0 6 -7 10 -15 10 -8 0
-15 -2 -15 -4z"/>
<path d="M4600 4412 c0 -8 27 -33 50 -47 8 -4 2 6 -14 23 -31 34 -36 37 -36
24z"/>
<path d="M4670 4390 c-9 -6 -10 -10 -3 -10 6 0 15 5 18 10 8 12 4 12 -15 0z"/>
<path d="M4600 4365 c-7 -9 -11 -17 -9 -20 3 -2 10 5 17 15 14 24 10 26 -8 5z"/>
<path d="M4655 4348 c-27 -18 -28 -19 -5 -13 26 8 47 22 39 28 -2 3 -17 -4
-34 -15z"/>
<path d="M3571 4590 c-6 -30 -4 -900 2 -900 4 0 7 8 7 18 0 9 11 41 25 71 48
103 163 241 268 321 37 29 67 53 67 55 0 1 -31 25 -69 54 -122 91 -262 263
-291 358 -4 15 -9 26 -9 23z m116 -301 c26 -29 47 -56 45 -61 -1 -5 2 -7 8 -3
6 4 24 -5 41 -19 17 -14 34 -26 39 -26 9 0 6 -51 -4 -68 -4 -6 -22 -19 -41
-28 -19 -9 -35 -21 -35 -26 0 -5 -22 -32 -50 -59 l-49 -50 -3 195 c-2 108 -2
196 -1 196 1 0 24 -23 50 -51z"/>
<path d="M3654 4174 c1 -68 4 -124 8 -124 5 0 8 4 8 9 0 5 9 13 20 16 11 4 18
10 15 15 -3 5 -13 6 -22 3 -9 -4 -14 -2 -10 3 3 6 2 16 -3 24 -13 22 8 44 27
28 11 -9 16 -9 24 3 13 21 11 39 -6 39 -9 0 -12 -6 -8 -17 5 -14 3 -15 -7 -6
-7 6 -19 9 -26 6 -26 -10 -14 12 13 24 22 11 29 10 45 -4 14 -13 21 -14 30 -5
9 9 4 14 -20 23 -18 6 -30 14 -27 18 2 5 -4 17 -15 27 -48 48 -47 50 -46 -82z
m43 56 c-1 -12 -7 -18 -14 -16 -6 3 -14 0 -17 -7 -2 -7 -5 -4 -5 6 -1 10 6 20
14 23 8 4 12 11 8 17 -3 6 -1 7 5 3 6 -3 10 -15 9 -26z"/>
<path d="M3753 4173 c-23 -15 -31 -43 -14 -43 12 0 32 26 25 32 -3 3 1 5 8 5
7 -1 14 2 16 8 6 16 -11 15 -35 -2z"/>
<path d="M3786 4141 c-27 -28 -29 -29 -62 -15 -50 21 -60 17 -30 -12 14 -15
26 -30 26 -33 0 -4 -16 -15 -36 -26 -34 -18 -35 -20 -17 -33 16 -13 16 -14 1
-9 -14 5 -18 1 -18 -15 0 -20 1 -21 20 -3 11 10 20 28 21 39 0 12 3 15 6 8 4
-10 8 -10 19 -1 8 6 11 15 8 20 -3 5 2 12 10 15 18 7 22 25 5 22 -6 -2 -14 4
-17 12 -4 12 -2 12 19 -1 21 -15 25 -15 39 0 8 10 11 11 6 4 -12 -18 2 -16 20
2 9 9 11 15 4 15 -8 0 -8 6 0 20 15 27 9 25 -24 -9z"/>
<path d="M5142 4550 c0 -14 2 -19 5 -12 2 6 2 18 0 25 -3 6 -5 1 -5 -13z"/>
<path d="M5095 4478 c-54 -104 -135 -195 -238 -266 l-57 -40 63 -45 c86 -62
185 -170 224 -247 l33 -62 2 356 c2 196 2 356 2 356 -1 0 -14 -24 -29 -52z
m-12 -153 c-3 -9 -8 -14 -10 -11 -3 3 -2 9 2 15 9 16 15 13 8 -4z m-28 -54
c-3 -6 -10 -9 -14 -7 -4 3 -20 -7 -34 -22 l-27 -28 24 -34 c26 -39 17 -63 -19
-49 -18 7 -18 8 3 8 25 1 26 26 1 26 -8 0 -18 6 -22 13 -4 6 -12 12 -16 12 -9
0 -8 -31 3 -48 4 -6 2 -12 -3 -12 -11 0 -12 3 -14 38 -2 22 105 134 116 123 5
-5 6 -14 2 -20z m22 -18 c-3 -10 -5 -2 -5 17 0 19 2 27 5 18 2 -10 2 -26 0
-35z m-9 -59 c2 3 -1 12 -8 21 -11 13 -10 14 4 9 11 -4 16 -19 17 -53 0 -25 1
-67 2 -93 1 -27 1 -48 -1 -48 -2 0 -15 12 -30 26 -15 14 -40 32 -55 40 -16 9
-26 18 -23 21 3 3 17 -2 30 -11 14 -8 32 -13 40 -10 9 3 16 2 16 -4 0 -6 -5
-12 -12 -14 -7 -3 -5 -7 5 -11 16 -6 17 0 16 53 -2 56 -11 77 -22 48 -2 -7 -8
-9 -13 -5 -5 4 -2 12 6 18 13 8 13 11 -2 23 -10 7 -18 19 -18 26 0 7 10 1 21
-14 12 -15 24 -25 27 -22z m-54 10 c3 -8 2 -12 -4 -9 -6 3 -10 10 -10 16 0 14
7 11 14 -7z m46 -89 c0 -5 -5 -3 -10 5 -5 8 -10 20 -10 25 0 6 5 3 10 -5 5 -8
10 -19 10 -25z"/>
<path d="M4966 4202 c-3 -6 -1 -14 5 -17 14 -9 20 -2 10 14 -6 8 -11 9 -15 3z"/>
<path d="M4258 4130 c-167 -28 -335 -128 -458 -273 -103 -121 -170 -260 -206
-425 -20 -94 -23 -312 -4 -397 65 -306 233 -505 503 -596 43 -15 81 -29 84
-33 7 -6 -41 -26 -63 -26 -8 0 -14 5 -14 11 0 6 7 9 15 5 8 -3 15 0 15 5 0 7
-10 9 -27 5 -49 -12 -56 -11 -60 2 -4 9 2 11 21 6 15 -3 26 -2 26 4 0 5 -10
12 -22 15 -13 2 -30 7 -38 9 -8 3 -12 3 -7 1 14 -9 7 -33 -10 -33 -15 0 -16 2
-3 10 10 6 11 10 3 10 -7 0 -13 7 -13 15 0 8 -9 19 -20 25 -16 9 -26 7 -45 -8
l-24 -19 70 -33 c38 -17 79 -30 89 -27 10 3 20 1 22 -4 5 -15 50 -20 65 -7 12
10 54 11 126 5 39 -3 14 -13 -32 -13 -27 1 -47 4 -45 8 3 4 -2 5 -10 2 -38
-15 -8 -21 95 -21 117 -1 149 3 149 19 0 5 -4 6 -10 3 -6 -3 -7 1 -4 9 5 12 0
16 -19 16 -14 0 -29 -4 -32 -10 -3 -6 4 -10 16 -10 30 0 21 -6 -21 -14 -27 -5
-32 -4 -22 6 19 19 14 30 -8 18 -11 -6 -18 -16 -15 -23 4 -7 1 -5 -7 4 -7 9
-37 19 -71 23 -31 4 -57 11 -57 16 0 5 13 5 28 1 43 -13 202 1 302 26 218 54
448 249 548 465 114 248 106 613 -18 858 -37 73 -127 179 -198 235 -70 55
-198 119 -270 134 -59 12 -252 13 -324 1z m102 -94 c0 -2 -15 -6 -34 -8 -19
-2 -32 0 -30 4 5 8 64 12 64 4z m195 -23 c83 -20 95 -34 95 -102 0 -80 -23
-161 -75 -267 -33 -68 -51 -93 -72 -102 -23 -10 -25 -10 -13 0 8 7 22 22 30
33 15 20 14 20 -8 1 -30 -26 -35 -17 -22 40 16 68 14 188 -5 259 -19 74 -47
145 -57 145 -5 0 -8 4 -8 9 0 11 49 5 135 -16z m-365 -82 c26 -27 60 -76 77
-108 33 -62 86 -230 77 -244 -13 -22 -42 -3 -81 51 -52 73 -135 140 -230 186
-40 20 -73 38 -73 41 0 19 145 121 174 123 6 0 31 -22 56 -49z m618 -107 c-3
-14 -5 -12 -10 9 -3 19 -2 25 4 19 6 -6 8 -18 6 -28z m69 -74 c27 -36 56 -78
64 -95 9 -16 22 -40 30 -53 20 -33 -1 -65 -86 -129 -65 -49 -219 -122 -231
-110 -3 3 0 15 6 27 6 11 9 26 6 33 -2 7 -5 5 -5 -5 -1 -11 -7 -15 -21 -11
-19 5 -20 6 -3 20 17 14 17 14 -2 9 -13 -4 -8 3 13 20 85 67 191 270 178 338
-4 16 -4 28 -2 25 2 -2 26 -33 53 -69z m-879 -164 c59 -16 164 -75 156 -87 -2
-5 5 -13 16 -19 28 -15 25 -30 -7 -30 -23 0 -25 -2 -13 -11 11 -8 4 -9 -25 -4
-118 20 -241 -7 -365 -79 l-61 -36 6 38 c9 51 54 212 67 236 9 17 18 18 92 13
44 -4 105 -13 134 -21z m447 -67 c73 -20 126 -90 145 -191 26 -135 -80 -268
-214 -270 -57 -1 -101 25 -144 85 -29 41 -36 59 -40 116 -4 58 -1 77 20 123
27 59 85 115 139 134 43 16 46 16 94 3z m205 -123 c0 -3 -4 -8 -10 -11 -5 -3
-10 -1 -10 4 0 6 5 11 10 11 6 0 10 -2 10 -4z m365 -148 c-3 -46 -13 -112 -22
-148 -26 -113 -16 -104 -97 -96 -139 13 -281 64 -294 106 -3 10 3 8 19 -7 24
-22 207 -73 261 -73 15 0 38 -4 52 -10 14 -5 26 -6 26 -2 0 4 -14 13 -31 19
-20 8 -29 17 -27 29 2 9 -3 19 -11 22 -10 3 -12 -2 -7 -21 6 -24 4 -25 -22
-17 -16 4 -26 13 -24 21 2 8 0 11 -3 7 -4 -4 -21 0 -37 8 -39 20 -31 26 15 12
22 -7 37 -18 37 -27 0 -14 2 -14 10 -1 5 8 10 25 10 38 0 20 9 26 36 23 6 -1
18 6 25 15 12 15 11 16 -9 10 -12 -4 -22 -3 -22 2 0 5 10 9 23 8 12 -1 21 -7
19 -15 -1 -7 3 -11 9 -9 15 5 19 47 6 55 -5 3 -19 1 -30 -5 -12 -6 -37 -16
-54 -24 -18 -7 -33 -16 -33 -20 0 -4 -17 -4 -37 -1 -44 7 -42 -3 2 -11 18 -3
39 1 53 10 13 9 26 13 29 11 2 -3 -5 -10 -16 -16 -12 -7 -18 -17 -15 -26 4 -8
1 -15 -6 -15 -6 0 -8 5 -5 10 4 7 -5 9 -24 5 -17 -3 -31 -1 -31 3 0 5 -6 9
-14 9 -8 0 -14 -5 -13 -11 3 -16 -34 -14 -61 3 -18 11 -20 16 -10 22 7 5 8 9
3 9 -6 0 -19 -10 -29 -22 -17 -19 -17 -21 -1 -14 10 4 28 0 42 -9 13 -9 32
-15 41 -13 9 2 22 0 27 -5 6 -4 19 -15 30 -23 11 -9 16 -14 10 -11 -35 15 -53
20 -74 23 -13 2 -31 6 -40 10 -9 4 -23 8 -32 9 -23 2 -52 32 -39 40 5 3 15 3
20 0 6 -3 10 1 10 10 0 13 -4 14 -20 5 -11 -6 -20 -9 -20 -6 0 2 -3 13 -7 23
-5 14 -4 16 8 7 39 -28 209 -10 307 33 60 26 62 27 62 13 0 -5 -8 -10 -17 -10
-13 0 -14 -3 -5 -12 7 -7 12 -20 12 -30 0 -10 3 -18 8 -18 4 0 8 21 9 48 1 26
4 63 7 82 2 19 5 38 5 43 1 4 4 7 7 7 3 0 3 -37 -1 -82z m-907 -5 c-9 -2 -15
-10 -12 -18 3 -7 0 -16 -5 -20 -6 -3 -9 -10 -7 -14 3 -4 -28 -41 -68 -82 -76
-79 -148 -204 -162 -282 -5 -32 -9 -36 -21 -25 -23 19 -85 148 -79 165 3 8 2
11 -3 8 -15 -9 -24 14 -16 42 18 74 267 234 360 232 17 -1 22 -3 13 -6z m84
-250 c-6 -10 -9 -30 -7 -45 2 -16 -3 -29 -11 -32 -12 -5 -12 -2 -3 15 6 11 9
23 7 25 -3 2 -12 -12 -21 -32 -10 -19 -13 -33 -7 -29 13 8 13 -16 0 -49 -7
-20 -6 -26 4 -26 17 0 26 -22 25 -58 -1 -26 -1 -26 -10 5 -9 31 -29 55 -29 34
0 -5 -3 -18 -6 -28 -5 -15 -4 -15 5 -3 9 12 11 11 11 -8 0 -13 -4 -20 -10 -17
-5 3 -10 2 -10 -4 0 -5 4 -13 10 -16 5 -3 9 -24 8 -45 -1 -22 -5 -37 -10 -34
-4 3 -8 -2 -8 -11 0 -14 3 -14 26 1 20 14 27 15 37 4 10 -10 9 -12 -4 -7 -13
4 -16 1 -11 -16 7 -26 30 -52 39 -43 3 3 1 31 -6 62 -24 107 -11 277 25 328
17 24 18 14 4 -34 -20 -67 -13 -228 14 -320 13 -47 23 -87 20 -89 -7 -7 -117
22 -170 44 l-51 23 4 58 c2 33 13 90 25 128 21 73 105 252 114 243 3 -3 1 -14
-4 -24z m26 -13 c0 -16 -3 -30 -8 -30 -7 0 -8 43 -1 58 4 9 8 -3 9 -28z m224
-76 c13 -10 18 -12 11 -4 -6 8 -11 27 -11 42 l1 27 19 -22 19 -22 -11 23 c-7
13 -10 26 -7 28 8 8 37 -45 32 -59 -3 -7 5 -22 17 -33 l23 -19 -17 21 c-35 41
-17 36 31 -9 98 -91 254 -142 306 -99 11 9 -5 -10 -35 -41 -60 -64 -162 -137
-190 -137 -24 0 -120 105 -159 174 -36 62 -71 159 -70 190 1 15 3 12 10 -10 5
-17 19 -39 31 -50z m-252 -4 c0 -5 -4 -10 -10 -10 -5 0 -10 5 -10 10 0 6 5 10
10 10 6 0 10 -4 10 -10z m-4 -50 c2 -26 -1 -29 -13 -18 -9 7 -11 14 -5 16 6 2
8 10 5 18 -3 8 -1 14 4 14 4 0 9 -14 9 -30z m-2 -146 c10 -26 7 -41 -9 -41
-10 0 -14 9 -13 29 2 31 13 37 22 12z m21 -94 c3 -5 1 -10 -4 -10 -6 0 -11 5
-11 10 0 6 2 10 4 10 3 0 8 -4 11 -10z m-215 -171 c0 -11 -11 -11 -29 0 -7 5
-10 14 -6 20 5 9 10 9 21 0 8 -6 14 -15 14 -20z"/>
<path d="M4520 3990 c-9 -6 -10 -10 -3 -10 6 0 15 5 18 10 8 12 4 12 -15 0z"/>
<path d="M4580 3980 c0 -6 5 -8 10 -5 6 3 10 2 10 -3 0 -6 -11 -9 -25 -8 -14
0 -25 5 -25 10 0 5 -6 3 -13 -3 -8 -6 -18 -7 -22 -3 -5 4 -5 2 -1 -5 4 -7 13
-10 21 -6 8 3 15 1 15 -5 0 -5 12 -8 28 -6 26 3 27 1 29 -42 1 -39 -2 -44 -17
-39 -13 4 -20 -1 -25 -15 -7 -21 -7 -21 -28 -3 -22 18 -22 18 -4 -3 16 -20 15
-54 -2 -54 -4 0 -8 -19 -9 -42 0 -24 2 -37 5 -30 7 19 23 14 16 -5 -5 -15 -3
-14 10 2 14 17 16 17 17 4 0 -19 -26 -33 -42 -23 -6 4 -8 1 -6 -7 3 -8 13 -13
22 -12 12 0 15 -4 12 -14 -3 -8 -6 -17 -6 -19 0 -2 -9 -4 -19 -4 -10 0 -22 -7
-25 -16 -6 -15 -4 -15 11 -3 15 12 16 12 10 -4 -4 -12 -3 -17 4 -15 6 2 28 42
47 88 33 79 36 93 37 190 0 92 -2 105 -17 108 -10 2 -18 -2 -18 -8z m30 -138
c0 -5 -7 -9 -15 -9 -8 0 -15 4 -15 9 0 4 7 8 15 8 8 0 15 -4 15 -8z m-10 -38
c0 -7 -8 -11 -17 -9 -10 2 -22 4 -26 4 -5 1 -6 5 -3 9 7 12 46 9 46 -4z m-23
-20 c19 -5 21 -10 12 -25 -10 -20 -59 -27 -59 -8 0 7 10 9 25 5 19 -5 23 -3
19 8 -3 8 -14 13 -25 11 -11 -2 -17 0 -14 6 7 11 12 11 42 3z"/>
<path d="M4486 3942 c-3 -5 1 -9 9 -9 8 0 15 4 15 9 0 4 -4 8 -9 8 -6 0 -12
-4 -15 -8z"/>
<path d="M4535 3906 c1 -12 4 -22 5 -23 2 -3 5 -13 9 -30 1 -5 6 0 12 10 9 14
7 22 -8 32 -10 8 -14 15 -9 15 6 0 20 -10 33 -22 23 -22 33 -12 11 10 -9 9 -9
12 0 12 7 0 12 4 12 9 0 5 -15 9 -34 8 -27 -1 -33 -4 -31 -21z"/>
<path d="M4513 3815 c0 -8 4 -12 9 -9 4 3 8 9 8 15 0 5 -4 9 -8 9 -5 0 -9 -7
-9 -15z"/>
<path d="M4149 3933 c6 -12 16 -25 22 -28 5 -4 15 -17 20 -28 5 -12 17 -35 28
-52 10 -16 24 -48 31 -70 7 -22 15 -34 17 -28 6 18 -62 152 -97 193 -19 21
-27 26 -21 13z"/>
<path d="M4050 3920 c-9 -6 -10 -10 -3 -10 6 0 15 5 18 10 8 12 4 12 -15 0z"/>
<path d="M4133 3865 c-8 -9 -9 -16 -3 -20 6 -3 10 -1 10 5 0 6 4 8 10 5 6 -3
7 1 4 9 -7 19 -6 19 -21 1z"/>
<path d="M4095 3819 c-4 -6 -5 -12 -2 -15 2 -3 7 2 10 11 7 17 1 20 -8 4z"/>
<path d="M4199 3743 c-13 -16 -12 -17 4 -4 16 13 21 21 13 21 -2 0 -10 -8 -17
-17z"/>
<path d="M4268 3704 c-4 -5 0 -20 8 -34 7 -14 13 -18 13 -10 -1 24 -15 54 -21
44z"/>
<path d="M4290 3620 c6 -11 12 -20 14 -20 2 0 2 9 -1 20 -3 11 -9 20 -15 20
-5 0 -4 -9 2 -20z"/>
<path d="M4840 3765 c0 -6 5 -16 12 -23 9 -9 9 -12 0 -12 -6 0 -21 -18 -32
-40 -24 -47 -25 -57 -5 -40 12 10 15 10 15 0 0 -6 -9 -14 -20 -17 -11 -3 -20
-9 -20 -14 0 -11 14 -12 24 -1 7 7 11 8 39 11 9 1 8 4 -2 10 -33 21 -13 88 21
70 20 -11 20 -46 0 -54 -7 -3 -10 -10 -7 -16 8 -13 -26 -40 -40 -31 -5 3 -4
-1 3 -10 9 -11 10 -18 2 -23 -16 -10 -12 -21 14 -33 21 -9 24 -8 24 14 0 20
-3 22 -14 13 -11 -9 -14 -9 -14 0 0 6 7 14 15 17 8 4 12 10 9 15 -8 14 10 11
32 -6 19 -15 19 -15 -1 -9 -16 6 -18 5 -7 -7 14 -16 16 -33 2 -24 -5 3 -10 1
-10 -5 0 -16 46 -7 69 14 20 18 20 18 -2 51 -20 30 -47 37 -47 12 0 -6 3 -7 6
-4 6 6 44 -29 44 -40 0 -3 -7 -11 -15 -20 -14 -14 -15 -13 -11 11 4 22 0 29
-20 36 -29 11 -31 26 -4 42 11 7 20 16 20 21 0 4 -4 6 -8 3 -4 -2 -13 7 -20
22 -16 34 -51 80 -52 67z"/>
<path d="M4847 3687 c-3 -8 -1 -20 4 -28 10 -15 10 -14 14 19 2 24 -10 30 -18
9z"/>
<path d="M4780 3591 c0 -6 -13 -24 -30 -42 -30 -34 -34 -55 -4 -25 20 20 28
15 19 -13 -4 -14 -12 -18 -29 -15 -16 3 -31 -6 -52 -28 l-29 -32 35 25 c42 30
70 27 70 -7 0 -17 -5 -24 -20 -24 -11 0 -20 5 -20 10 0 6 -5 10 -10 10 -7 0
-7 -6 0 -20 6 -11 7 -20 2 -20 -4 0 -17 -7 -28 -15 -18 -14 -17 -14 9 -5 72
26 84 36 82 79 -1 32 2 39 16 38 15 -1 16 -4 6 -16 -10 -12 -9 -14 8 -7 18 6
17 5 -3 -14 -40 -37 -17 -33 37 7 28 21 46 39 41 41 -5 2 -17 -4 -26 -13 -15
-15 -17 -14 -29 1 -6 9 -17 14 -23 10 -16 -10 -37 33 -23 47 6 6 11 7 11 3 0
-5 7 -3 15 4 8 7 12 16 9 21 -7 12 -34 12 -34 0z"/>
<path d="M4790 3540 c0 -6 7 -10 15 -10 8 0 15 2 15 4 0 2 -7 6 -15 10 -8 3
-15 1 -15 -4z"/>
<path d="M4830 3520 c0 -5 5 -10 10 -10 6 0 10 5 10 10 0 6 -4 10 -10 10 -5 0
-10 -4 -10 -10z"/>
<path d="M4730 3455 c7 -9 15 -13 17 -11 7 7 -7 26 -19 26 -6 0 -6 -6 2 -15z"/>
<path d="M3813 3553 c9 -2 23 -2 30 0 6 3 -1 5 -18 5 -16 0 -22 -2 -12 -5z"/>
<path d="M3869 3547 c5 -5 19 -7 32 -5 20 3 19 5 -9 9 -20 3 -29 2 -23 -4z"/>
<path d="M4000 3520 c20 -13 33 -13 25 0 -3 6 -14 10 -23 10 -15 0 -15 -2 -2
-10z"/>
<path d="M4060 3506 c0 -2 8 -10 18 -17 15 -13 16 -12 3 4 -13 16 -21 21 -21
13z"/>
<path d="M3988 3463 c6 -2 18 -2 25 0 6 3 1 5 -13 5 -14 0 -19 -2 -12 -5z"/>
<path d="M3840 3419 c0 -5 5 -7 10 -4 6 3 10 8 10 11 0 2 -4 4 -10 4 -5 0 -10
-5 -10 -11z"/>
<path d="M4336 3482 c-2 -4 4 -8 15 -8 10 0 19 4 19 8 0 4 -6 8 -14 8 -8 0
-17 -4 -20 -8z"/>
<path d="M4321 3438 c-89 -60 -98 -210 -18 -280 25 -22 69 -23 114 -2 38 19
29 34 -20 34 -37 0 -87 49 -87 85 0 39 61 97 97 93 15 -2 27 -8 26 -15 -2 -7
3 -10 11 -7 30 11 50 -137 22 -159 -7 -5 -5 -7 4 -5 28 7 62 89 57 137 -11
106 -127 173 -206 119z"/>
<path d="M4230 3369 c0 -5 5 -7 10 -4 6 3 10 8 10 11 0 2 -4 4 -10 4 -5 0 -10
-5 -10 -11z"/>
<path d="M4466 3137 c3 -10 9 -15 12 -12 3 3 0 11 -7 18 -10 9 -11 8 -5 -6z"/>
<path d="M4499 3123 c-13 -16 -12 -17 4 -4 9 7 17 15 17 17 0 8 -8 3 -21 -13z"/>
<path d="M4328 3123 c6 -2 18 -2 25 0 6 3 1 5 -13 5 -14 0 -19 -2 -12 -5z"/>
<path d="M4942 3133 c-26 -5 -21 -22 6 -18 9 1 11 0 5 -2 -15 -5 -17 -23 -4
-23 5 0 17 7 25 16 30 30 21 37 -32 27z"/>
<path d="M4899 3101 c13 -10 21 -23 17 -29 -3 -6 -2 -13 3 -16 5 -3 12 2 16
11 6 18 -26 53 -49 53 -6 0 0 -9 13 -19z"/>
<path d="M4952 3065 c-14 -29 2 -34 18 -6 12 24 13 31 2 31 -5 0 -14 -11 -20
-25z"/>
<path d="M4020 3213 c-52 -18 -68 -29 -27 -19 21 5 27 3 27 -9 0 -9 4 -14 10
-10 5 3 6 13 3 21 -5 13 -1 15 14 10 14 -4 20 -2 20 9 0 8 -1 15 -1 15 -1 -1
-21 -8 -46 -17z"/>
<path d="M4033 3163 c-27 -21 -33 -23 -33 -9 0 10 -5 14 -11 11 -6 -4 -8 -13
-5 -21 6 -14 -26 -54 -43 -54 -15 0 -22 33 -9 42 8 5 9 8 2 8 -6 0 -17 -7 -24
-15 -8 -9 -8 -15 -2 -15 17 0 25 -41 12 -54 -10 -8 -12 -7 -7 6 9 24 -17 42
-33 23 -9 -10 -9 -15 -1 -15 6 0 11 5 11 11 0 5 5 7 10 4 8 -5 7 -11 -1 -21
-9 -11 -9 -14 1 -14 18 0 6 -23 -14 -26 -12 -2 -16 2 -12 12 3 8 2 12 -3 9 -6
-3 -9 -14 -8 -25 1 -10 5 -16 9 -14 15 10 8 -12 -17 -49 -14 -20 -21 -37 -16
-37 5 0 24 25 42 56 33 59 82 114 158 177 50 42 44 50 -6 10z"/>
<path d="M3925 3171 c-3 -5 -2 -12 3 -15 5 -3 9 1 9 9 0 17 -3 19 -12 6z"/>
<path d="M3875 3140 c-3 -6 1 -7 9 -4 18 7 21 14 7 14 -6 0 -13 -4 -16 -10z"/>
<path d="M3956 3123 c-6 -14 -5 -15 5 -6 7 7 10 15 7 18 -3 3 -9 -2 -12 -12z"/>
<path d="M3850 3110 c8 -5 20 -10 25 -10 6 0 3 5 -5 10 -8 5 -19 10 -25 10 -5
0 -3 -5 5 -10z"/>
<path d="M3845 3070 c-3 -5 -1 -10 4 -10 6 0 11 5 11 10 0 6 -2 10 -4 10 -3 0
-8 -4 -11 -10z"/>
<path d="M3780 3038 c0 -3 6 -9 13 -12 8 -3 6 -10 -8 -22 -11 -9 -14 -14 -6
-12 8 2 19 13 25 24 6 10 15 22 20 26 5 3 -3 5 -17 5 -15 -1 -27 -5 -27 -9z"/>
<path d="M3787 2970 c-11 -11 -14 -20 -8 -24 5 -4 15 3 21 15 15 27 10 31 -13
9z"/>
<path d="M3832 2895 c-6 -11 -12 -14 -12 -7 0 7 -5 10 -10 7 -6 -4 -7 -12 -3
-18 4 -7 8 -18 9 -25 4 -23 14 -27 14 -6 0 11 5 25 11 31 6 6 9 17 7 24 -3 10
-8 8 -16 -6z"/>
<path d="M4102 2791 c-6 -17 -9 -31 -6 -31 7 0 25 52 20 57 -2 2 -8 -10 -14
-26z"/>
<path d="M4076 2662 c-2 -4 -1 -14 5 -22 7 -12 9 -10 9 8 0 23 -5 28 -14 14z"/>
<path d="M4114 2617 c3 -10 6 -20 6 -23 0 -2 7 -1 15 2 8 4 15 1 15 -5 0 -6 5
-11 11 -11 8 0 8 4 0 14 -9 11 -9 15 1 20 7 3 2 3 -11 0 -14 -4 -27 -1 -33 7
-7 11 -8 9 -4 -4z"/>
<path d="M4166 2558 c3 -5 10 -6 15 -3 13 9 11 12 -6 12 -8 0 -12 -4 -9 -9z"/>
<path d="M4220 2550 c0 -5 5 -10 11 -10 5 0 7 5 4 10 -3 6 -8 10 -11 10 -2 0
-4 -4 -4 -10z"/>
<path d="M4465 2909 c13 -23 14 -27 2 -32 -8 -3 -20 0 -27 6 -10 9 -11 9 -4
-3 5 -8 9 -19 9 -25 0 -5 9 -11 20 -12 11 -2 14 0 7 3 -6 3 -10 10 -6 15 9 14
24 0 24 -23 0 -13 -5 -18 -14 -15 -10 4 -12 0 -9 -14 5 -19 6 -19 18 -2 19 28
25 53 14 53 -6 0 -8 4 -5 8 3 5 -6 21 -20 38 -23 26 -24 26 -9 3z"/>
<path d="M4519 2843 c-11 -15 -11 -16 1 -5 21 19 31 14 26 -12 -5 -27 2 -39
16 -30 5 3 4 12 -3 20 -9 11 -9 14 1 14 10 0 10 3 0 15 -16 19 -25 19 -41 -2z"/>
<path d="M4509 2818 c-1 -5 -2 -11 -3 -15 -1 -5 -5 -14 -9 -20 -10 -16 1 -36
14 -27 5 3 6 10 3 16 -4 6 -2 13 4 17 7 4 8 12 2 21 -6 8 -10 12 -11 8z"/>
<path d="M4607 2796 c-3 -8 0 -17 7 -19 10 -4 12 1 9 14 -6 23 -9 24 -16 5z"/>
<path d="M4570 2779 c0 -6 -8 -9 -20 -6 -11 3 -20 1 -20 -4 0 -5 7 -9 16 -9 8
0 12 -5 9 -10 -9 -14 52 -73 66 -65 7 5 2 12 -13 19 -14 7 -22 20 -21 32 1 10
0 13 -3 6 -3 -6 -10 -9 -16 -6 -5 4 -3 13 7 24 11 12 13 20 6 25 -6 3 -11 1
-11 -6z"/>
<path d="M4636 2764 c-18 -12 -15 -19 7 -15 11 2 8 -14 -5 -27 -9 -9 -8 -12 5
-12 9 0 17 -5 17 -11 0 -5 -5 -7 -12 -3 -8 5 -9 2 -5 -9 4 -11 1 -17 -8 -17
-17 0 -20 -26 -5 -35 6 -4 8 -11 4 -17 -3 -5 8 -2 25 6 30 16 42 36 20 36 -5
0 -8 -4 -5 -9 3 -5 0 -11 -7 -14 -8 -3 -13 3 -13 14 0 11 4 19 9 19 4 0 5 5 2
10 -3 6 -1 10 6 10 8 0 6 7 -5 19 -21 23 -10 32 22 20 21 -8 22 -10 8 -25 -18
-17 -21 -34 -7 -34 5 0 11 9 14 20 6 24 37 27 37 4 0 -12 10 -8 40 16 22 17
40 37 40 43 0 6 -6 4 -12 -4 -7 -8 -24 -23 -37 -34 -20 -17 -23 -17 -18 -3 4
12 0 15 -19 13 -13 -1 -24 2 -24 8 0 5 15 7 35 4 20 -3 37 -1 41 5 5 7 -9 9
-45 6 -28 -3 -54 -1 -57 3 -3 5 3 9 12 9 22 0 15 6 -16 13 -15 3 -33 0 -44 -9z
m34 -4 c0 -5 -5 -10 -11 -10 -5 0 -7 5 -4 10 3 6 8 10 11 10 2 0 4 -4 4 -10z"/>
<path d="M4516 2742 c-3 -5 1 -15 9 -22 16 -14 20 -3 6 19 -5 8 -11 9 -15 3z"/>
<path d="M4605 2730 c-3 -5 -1 -10 4 -10 6 0 11 5 11 10 0 6 -2 10 -4 10 -3 0
-8 -4 -11 -10z"/>
<path d="M4571 2663 c18 -21 35 -40 37 -42 1 -2 4 -2 7 1 9 9 -7 38 -21 38 -8
0 -13 3 -13 8 1 4 1 14 0 22 -1 13 -2 13 -11 0 -6 -10 -10 -11 -10 -2 0 6 -5
12 -12 12 -7 0 4 -17 23 -37z"/>
<path d="M4715 2685 c-5 -11 -10 -24 -13 -30 -3 -5 3 -3 13 7 9 9 15 22 12 30
-3 9 -7 7 -12 -7z"/>
<path d="M5162 3138 c-18 -18 -15 -48 6 -48 13 0 14 2 3 9 -10 7 -11 13 -2 30
13 24 11 27 -7 9z"/>
<path d="M5132 3040 c-5 -22 -6 -37 -1 -34 5 3 9 0 9 -7 0 -7 8 -5 19 7 22 22
19 33 -5 14 -14 -12 -15 -10 -9 23 10 49 0 47 -13 -3z"/>
<path d="M5166 3064 c-8 -20 -8 -24 2 -24 4 0 8 9 9 20 2 24 -3 26 -11 4z"/>
<path d="M3501 3014 c0 -11 3 -14 6 -6 3 7 2 16 -1 19 -3 4 -6 -2 -5 -13z"/>
<path d="M3500 2970 c0 -11 4 -20 9 -20 5 0 7 9 4 20 -3 11 -7 20 -9 20 -2 0
-4 -9 -4 -20z"/>
<path d="M5103 2943 c-3 -10 -8 -21 -10 -25 -2 -5 -1 -8 4 -8 4 0 13 11 20 25
6 14 7 25 2 25 -5 0 -12 -8 -16 -17z"/>
<path d="M3596 2892 c-2 -4 -1 -14 3 -21 6 -9 11 -10 15 -2 4 6 2 11 -4 11 -6
0 -8 5 -5 10 3 6 4 10 1 10 -3 0 -7 -4 -10 -8z"/>
<path d="M3605 2809 c-4 -6 -4 -13 -1 -16 3 -4 6 -1 6 6 0 7 5 9 12 5 7 -4 8
-3 4 4 -9 15 -13 15 -21 1z"/>
<path d="M3627 2779 c7 -7 15 -10 18 -7 3 3 -2 9 -12 12 -14 6 -15 5 -6 -5z"/>
<path d="M3630 2730 c6 -11 13 -20 16 -20 2 0 0 9 -6 20 -6 11 -13 20 -16 20
-2 0 0 -9 6 -20z"/>
<path d="M3685 2700 c-3 -6 1 -7 9 -4 18 7 21 14 7 14 -6 0 -13 -4 -16 -10z"/>
<path d="M4940 2691 c0 -14 -37 -51 -50 -51 -5 0 -10 -7 -10 -15 0 -8 -3 -15
-8 -15 -16 0 -111 -78 -104 -85 4 -5 2 -5 -5 -1 -7 4 -21 -1 -32 -11 -36 -33
-50 -43 -58 -41 -11 2 -63 -20 -63 -27 0 -4 10 -3 23 0 17 5 19 4 7 -4 -8 -6
-24 -8 -34 -5 -15 5 -18 3 -12 -12 4 -10 4 -15 0 -12 -4 4 -15 3 -25 -3 -11
-6 -19 -6 -19 0 0 5 7 12 16 15 9 4 15 9 12 11 -2 3 -25 -2 -51 -11 -32 -11
-44 -20 -40 -30 3 -8 -1 -14 -11 -14 -10 0 -13 6 -10 15 4 9 0 15 -9 15 -10 0
-13 -7 -10 -24 5 -22 8 -23 33 -14 19 6 27 15 23 24 -3 8 1 14 11 14 10 0 13
-5 9 -17 -5 -12 -3 -14 7 -8 8 5 26 10 40 11 21 3 95 30 110 42 2 1 -2 8 -10
13 -11 8 -10 9 8 4 29 -8 100 23 108 47 3 10 9 16 14 13 12 -7 40 5 40 17 0 6
-8 4 -17 -3 -16 -13 -17 -12 -4 3 7 10 17 15 22 13 4 -3 36 22 71 55 35 33 58
60 51 60 -7 0 -10 6 -7 14 3 8 1 17 -5 21 -6 3 -11 1 -11 -4z m10 -35 c0 -3
-4 -8 -10 -11 -5 -3 -10 -1 -10 4 0 6 5 11 10 11 6 0 10 -2 10 -4z m-40 -45
c0 -5 -7 -12 -16 -15 -14 -5 -15 -4 -4 9 14 17 20 19 20 6z m-40 -31 c0 -5 -8
-10 -17 -10 -15 0 -16 2 -3 10 19 12 20 12 20 0z"/>
<path d="M3700 2666 c7 -7 13 -7 20 0 6 6 3 10 -10 10 -13 0 -16 -4 -10 -10z"/>
<path d="M5314 2655 c-3 -8 -4 -20 -2 -27 3 -7 7 -1 10 15 6 29 1 36 -8 12z"/>
<path d="M3725 2640 c-3 -6 1 -7 9 -4 18 7 21 14 7 14 -6 0 -13 -4 -16 -10z"/>
<path d="M3710 2611 c0 -6 4 -13 10 -16 6 -3 7 1 4 9 -7 18 -14 21 -14 7z"/>
<path d="M3764 2607 c3 -10 6 -22 6 -25 0 -4 4 -1 8 6 6 9 15 6 32 -13 l24
-26 -33 6 c-42 7 -53 14 -46 26 4 5 1 9 -4 9 -19 0 -12 -15 21 -46 17 -16 28
-24 25 -18 -4 7 3 14 19 17 16 3 28 -1 31 -9 2 -7 19 -17 36 -23 l32 -11 -30
23 c-16 12 -47 37 -67 56 -21 18 -38 29 -38 25 0 -5 -5 -2 -11 6 -9 12 -10 12
-5 -3z"/>
<path d="M3815 2520 c-3 -6 1 -7 9 -4 18 7 21 14 7 14 -6 0 -13 -4 -16 -10z"/>
<path d="M5310 2521 c0 -6 4 -13 10 -16 6 -3 7 1 4 9 -7 18 -14 21 -14 7z"/>
<path d="M3857 2479 c30 -20 58 -25 48 -9 -3 6 -16 10 -28 10 -16 0 -18 3 -8
9 9 6 5 9 -14 9 l-27 0 29 -19z"/>
<path d="M3920 2485 c0 -16 16 -20 24 -6 3 5 -1 11 -9 15 -9 3 -15 0 -15 -9z"/>
<path d="M5311 2474 c0 -11 3 -14 6 -6 3 7 2 16 -1 19 -3 4 -6 -2 -5 -13z"/>
<path d="M5350 2480 c0 -5 5 -10 11 -10 5 0 7 5 4 10 -3 6 -8 10 -11 10 -2 0
-4 -4 -4 -10z"/>
<path d="M5303 2436 c-6 -7 -65 -21 -132 -31 -67 -10 -121 -21 -121 -25 0 -3
16 -4 35 -2 24 3 35 0 35 -9 0 -7 -3 -9 -7 -6 -6 7 -32 -21 -33 -35 0 -15 38
-8 51 9 13 15 12 15 -8 5 -33 -18 -34 -15 -4 17 22 23 41 31 92 39 43 7 68 7
77 -1 9 -7 11 -6 5 8 -5 14 -3 17 8 13 10 -4 15 1 16 13 2 22 2 22 -14 5z"/>
<path d="M3301 2424 c0 -11 3 -14 6 -6 3 7 2 16 -1 19 -3 4 -6 -2 -5 -13z"/>
<path d="M5210 2386 c0 -2 8 -10 18 -17 15 -13 16 -12 3 4 -13 16 -21 21 -21
13z"/>
<path d="M5245 2380 c3 -5 8 -10 11 -10 2 0 4 5 4 10 0 6 -5 10 -11 10 -5 0
-7 -4 -4 -10z"/>
<path d="M5323 2380 c2 -8 12 -16 23 -17 13 -2 15 -1 4 4 -8 3 -19 11 -23 17
-6 7 -7 6 -4 -4z"/>
<path d="M4910 2364 c-122 -23 -264 -46 -282 -45 -10 0 -18 -7 -18 -15 0 -11
4 -12 19 -5 10 6 39 13 62 15 24 3 71 10 104 16 77 13 76 13 68 -7 -6 -15 -5
-16 9 -3 9 9 12 17 6 21 -6 4 16 10 48 14 31 4 64 9 72 13 11 4 14 1 9 -11 -8
-22 -5 -21 16 3 16 19 16 20 -11 19 -15 -1 -61 -7 -102 -15z"/>
<path d="M5065 2360 c-3 -5 -1 -10 4 -10 6 0 11 5 11 10 0 6 -2 10 -4 10 -3 0
-8 -4 -11 -10z"/>
<path d="M5038 2344 c6 -12 9 -23 7 -26 -3 -3 2 -5 10 -5 20 0 19 4 -6 30 -21
21 -21 21 -11 1z"/>
<path d="M5160 2345 c-7 -9 -8 -15 -2 -15 5 0 12 7 16 15 3 8 4 15 2 15 -2 0
-9 -7 -16 -15z"/>
<path d="M4945 2340 c3 -5 15 -10 26 -10 11 0 17 -5 14 -10 -4 -6 -14 -9 -22
-8 -9 2 -18 -2 -20 -8 -2 -7 8 -9 27 -6 31 4 38 20 18 40 -14 14 -52 16 -43 2z"/>
<path d="M5218 2343 c7 -3 16 -2 19 1 4 3 -2 6 -13 5 -11 0 -14 -3 -6 -6z"/>
<path d="M4905 2331 c-3 -5 0 -13 6 -17 7 -4 9 -3 5 4 -3 5 0 13 6 15 9 4 10
6 1 6 -6 1 -14 -3 -18 -8z"/>
<path d="M5010 2320 c0 -5 5 -10 10 -10 6 0 10 5 10 10 0 6 -4 10 -10 10 -5 0
-10 -4 -10 -10z"/>
<path d="M3302 2300 c0 -14 2 -19 5 -12 2 6 2 18 0 25 -3 6 -5 1 -5 -13z"/>
<path d="M4781 2301 c-17 -17 -20 -18 -35 -3 -12 12 -16 13 -16 3 0 -11 -3
-11 -16 -1 -12 11 -18 10 -30 -3 -8 -9 -9 -12 -2 -7 19 16 32 11 17 -6 -12
-15 -11 -16 9 -10 13 5 22 3 22 -3 0 -6 5 -11 11 -11 8 0 8 5 -1 15 -8 9 -9
15 -2 15 6 0 13 -4 17 -10 3 -5 12 -7 20 -4 8 4 12 11 8 16 -4 7 4 9 21 6 28
-6 36 6 11 16 -9 3 -24 -3 -34 -13z"/>
<path d="M4549 2306 c-2 -2 -26 -7 -54 -10 -27 -4 -97 -15 -155 -26 -58 -11
-131 -23 -163 -26 -52 -6 -57 -9 -52 -28 6 -20 5 -20 -9 -2 -13 16 -21 17 -63
8 -42 -8 -44 -10 -15 -11 17 0 32 -5 32 -11 0 -5 5 -10 11 -10 6 0 8 7 5 15
-5 14 -4 14 16 0 30 -20 38 -19 38 6 0 12 4 17 11 14 6 -4 8 -14 5 -22 -4 -8
-1 -11 5 -8 6 4 8 13 5 21 -3 9 0 14 7 13 6 -1 19 0 27 4 8 3 32 8 53 11 28 4
37 2 34 -7 -3 -7 3 -13 14 -13 13 0 15 3 7 13 -6 7 -7 13 -2 14 5 0 20 2 33 5
20 4 22 2 11 -11 -9 -11 -9 -17 2 -28 15 -15 39 -11 51 9 4 8 13 14 19 14 7 0
6 -5 -2 -15 -10 -12 -9 -15 4 -15 10 0 14 5 11 10 -3 6 -1 10 4 10 6 0 11 -5
11 -11 0 -8 4 -9 13 0 8 6 17 8 20 4 4 -3 7 -2 7 4 0 16 -12 23 -24 13 -7 -5
-17 -5 -26 0 -12 8 -11 10 5 11 11 0 14 3 8 6 -7 2 -13 10 -13 16 0 5 2 8 5 5
3 -3 34 0 68 8 34 7 65 10 69 8 3 -2 9 0 13 6 6 9 -36 15 -46 6z m-119 -47 c0
-6 -7 -8 -16 -5 -8 3 -13 2 -10 -3 9 -14 -22 -34 -41 -26 -16 6 -16 8 6 26 25
21 61 26 61 8z"/>
<path d="M4840 2301 c0 -5 5 -13 10 -16 6 -3 10 -2 10 4 0 5 -4 13 -10 16 -5
3 -10 2 -10 -4z"/>
<path d="M4878 2293 c6 -2 18 -2 25 0 6 3 1 5 -13 5 -14 0 -19 -2 -12 -5z"/>
<path d="M4800 2280 c0 -5 5 -10 11 -10 5 0 7 5 4 10 -3 6 -8 10 -11 10 -2 0
-4 -4 -4 -10z"/>
<path d="M4535 2270 c3 -5 8 -10 11 -10 2 0 4 5 4 10 0 6 -5 10 -11 10 -5 0
-7 -4 -4 -10z"/>
<path d="M4572 2255 c6 -13 15 -22 19 -19 11 7 1 31 -16 38 -11 4 -12 0 -3
-19z"/>
<path d="M4615 2270 c-16 -7 -17 -9 -3 -9 9 -1 20 4 23 9 7 11 7 11 -20 0z"/>
<path d="M4502 2262 c-17 -11 -4 -45 15 -38 8 3 21 6 29 6 8 0 14 5 14 10 0 6
-11 8 -25 4 -20 -5 -24 -3 -19 10 7 18 5 19 -14 8z"/>
<path d="M4618 2243 c7 -3 16 -2 19 1 4 3 -2 6 -13 5 -11 0 -14 -3 -6 -6z"/>
<path d="M4210 2220 c0 -5 5 -10 11 -10 5 0 7 5 4 10 -3 6 -8 10 -11 10 -2 0
-4 -4 -4 -10z"/>
<path d="M3940 2206 c0 -9 39 -13 51 -5 10 6 4 9 -18 9 -18 0 -33 -2 -33 -4z"/>
<path d="M4240 2198 c0 -14 18 -17 28 -5 8 10 6 13 -9 13 -10 0 -19 -4 -19 -8z"/>
<path d="M4290 2199 c0 -8 47 -5 55 3 3 3 -8 5 -25 5 -16 0 -30 -4 -30 -8z"/>
<path d="M3813 2187 c-47 -8 -63 -15 -63 -26 0 -10 3 -12 8 -6 9 14 146 37
168 28 12 -4 15 -3 10 5 -8 14 -34 13 -123 -1z"/>
<path d="M4046 2191 c-4 -7 -5 -15 -2 -18 9 -9 19 4 14 18 -4 11 -6 11 -12 0z"/>
<path d="M4008 2183 c7 -3 16 -2 19 1 4 3 -2 6 -13 5 -11 0 -14 -3 -6 -6z"/>
<path d="M4153 2182 c-40 -6 -25 -18 17 -14 22 2 40 7 40 11 0 7 -21 8 -57 3z"/>
<path d="M3935 2164 c-11 -8 -25 -12 -32 -10 -7 3 -10 -1 -6 -10 3 -9 -1 -14
-12 -14 -12 0 -15 6 -10 23 4 17 2 16 -10 -7 -13 -22 -22 -27 -41 -23 -13 2
-24 0 -24 -4 0 -5 -12 -10 -27 -10 -16 -1 -21 -3 -13 -5 9 -3 47 2 85 10 38 8
73 12 77 10 4 -3 5 2 2 10 -3 9 -1 16 5 16 6 0 11 -4 11 -10 0 -5 8 -10 17
-10 15 0 14 2 -3 16 -13 11 -14 14 -3 11 9 -3 16 1 16 9 0 18 -7 17 -32 -2z"/>
<path d="M4085 2172 c-12 -12 -4 -20 15 -15 11 3 20 9 20 12 0 9 -27 10 -35 3z"/>
<path d="M3597 2152 c-65 -11 -87 -18 -83 -28 3 -7 -1 -17 -9 -21 -11 -7 -11
-11 2 -28 15 -20 15 -20 9 2 -4 12 -2 24 4 28 6 3 8 10 5 14 -2 5 45 16 105
26 106 17 139 27 83 24 -16 -1 -68 -9 -116 -17z"/>
<path d="M3980 2159 c0 -5 5 -7 10 -4 6 3 10 8 10 11 0 2 -4 4 -10 4 -5 0 -10
-5 -10 -11z"/>
<path d="M4023 2155 c0 -7 10 -10 24 -7 13 2 23 6 23 7 0 1 -10 5 -23 7 -14 3
-24 0 -24 -7z"/>
<path d="M3811 2153 c-1 -18 13 -23 29 -11 12 8 12 9 -2 5 -9 -3 -19 -1 -22 6
-3 9 -5 9 -5 0z"/>
<path d="M3463 2132 c-18 -2 -33 -7 -33 -12 0 -8 60 -3 69 6 8 7 -4 9 -36 6z"/>
<path d="M3710 2120 c0 -5 5 -10 11 -10 5 0 7 5 4 10 -3 6 -8 10 -11 10 -2 0
-4 -4 -4 -10z"/>
<path d="M3550 2110 c8 -5 20 -10 25 -10 6 0 3 5 -5 10 -8 5 -19 10 -25 10 -5
0 -3 -5 5 -10z"/>
<path d="M3611 2111 c-8 -5 -16 -17 -17 -26 -1 -9 1 -14 4 -10 4 4 6 9 4 12
-2 3 5 11 15 19 20 15 16 19 -6 5z"/>
<path d="M3645 2110 c-3 -5 -1 -10 4 -10 6 0 11 5 11 10 0 6 -2 10 -4 10 -3 0
-8 -4 -11 -10z"/>
<path d="M3676 2111 c-3 -5 1 -12 10 -15 22 -8 25 -4 9 11 -8 7 -16 9 -19 4z"/>
<path d="M3470 2085 c0 -8 4 -15 10 -15 5 0 7 7 4 15 -4 8 -8 15 -10 15 -2 0
-4 -7 -4 -15z"/>
<path d="M3530 2074 c0 -8 5 -12 10 -9 6 3 10 10 10 16 0 5 -4 9 -10 9 -5 0
-10 -7 -10 -16z"/>
<path d="M3440 2066 c0 -2 7 -7 16 -10 8 -3 12 -2 9 4 -6 10 -25 14 -25 6z"/>
<path d="M2260 7619 c0 -5 5 -7 10 -4 6 3 10 8 10 11 0 2 -4 4 -10 4 -5 0 -10
-5 -10 -11z"/>
<path d="M2197 7587 c-17 -12 -16 -13 7 -12 14 1 29 5 33 10 5 4 3 5 -4 2 -6
-4 -13 -2 -15 3 -2 7 -10 6 -21 -3z"/>
<path d="M2160 7561 c0 -7 -4 -10 -8 -7 -5 3 -19 -4 -30 -15 -27 -25 -28 -33
-2 -19 11 6 20 15 20 21 0 6 4 8 9 4 11 -6 26 13 17 22 -3 4 -6 1 -6 -6z"/>
<path d="M2066 7498 c3 -5 10 -6 15 -3 13 9 11 12 -6 12 -8 0 -12 -4 -9 -9z"/>
<path d="M2040 7490 c0 -5 5 -10 11 -10 5 0 7 5 4 10 -3 6 -8 10 -11 10 -2 0
-4 -4 -4 -10z"/>
<path d="M2011 7464 c0 -11 3 -14 6 -6 3 7 2 16 -1 19 -3 4 -6 -2 -5 -13z"/>
<path d="M1980 7462 c-8 -4 -16 -14 -18 -22 -3 -11 2 -10 17 4 28 26 29 30 1
18z"/>
<path d="M1920 7426 c0 -2 7 -6 15 -10 8 -3 15 -1 15 4 0 6 -7 10 -15 10 -8 0
-15 -2 -15 -4z"/>
<path d="M1900 7410 c0 -6 -5 -8 -10 -5 -6 4 -9 1 -8 -7 2 -8 -5 -12 -20 -11
-13 2 -25 -4 -28 -12 -4 -8 -10 -12 -15 -9 -5 3 -9 -2 -9 -10 0 -14 -7 -17
-35 -16 -13 1 -65 -32 -65 -40 0 -14 12 -12 38 6 12 8 22 12 22 7 0 -4 4 -3 8
2 4 6 28 22 55 35 67 35 92 56 78 64 -6 4 -11 2 -11 -4z"/>
<path d="M1690 7304 c0 -6 -17 -19 -39 -28 -59 -27 -124 -73 -113 -80 15 -9
43 4 35 17 -3 6 -1 7 5 3 15 -9 54 12 47 24 -4 6 1 7 11 3 12 -4 15 -3 10 5
-4 7 -2 10 6 7 22 -8 59 27 48 45 -5 8 -10 10 -10 4z"/>
<path d="M1422 6607 c-8 -10 -6 -13 9 -14 19 -2 26 11 10 21 -5 3 -14 0 -19
-7z"/>
<path d="M1773 6643 c9 -2 25 -2 35 0 9 3 1 5 -18 5 -19 0 -27 -2 -17 -5z"/>
<path d="M1610 6400 c0 -5 5 -10 11 -10 5 0 7 5 4 10 -3 6 -8 10 -11 10 -2 0
-4 -4 -4 -10z"/>
<path d="M2510 6185 c0 -8 5 -15 10 -15 6 0 10 7 10 15 0 8 -4 15 -10 15 -5 0
-10 -7 -10 -15z"/>
<path d="M1821 6155 c-17 -20 -31 -43 -31 -53 1 -10 10 0 21 22 11 21 29 41
40 43 10 3 19 9 19 14 0 18 -19 8 -49 -26z"/>
<path d="M1888 6183 c6 -2 18 -2 25 0 6 3 1 5 -13 5 -14 0 -19 -2 -12 -5z"/>
<path d="M1946 6164 c19 -15 19 -16 -1 -8 -78 29 -134 -25 -127 -121 4 -49
110 -91 126 -50 3 8 10 15 16 15 6 0 8 -4 5 -10 -3 -5 -1 -10 6 -10 8 0 7 -5
-2 -17 -12 -16 -12 -16 1 -6 11 8 15 29 14 80 -1 37 -4 78 -6 90 -5 25 -26 53
-41 53 -6 0 -2 -7 9 -16z m6 -100 c15 -31 -1 -61 -28 -56 -27 5 -64 42 -64 64
0 23 38 39 63 26 10 -5 23 -21 29 -34z"/>
<path d="M1880 6061 c0 -6 4 -13 10 -16 6 -3 7 1 4 9 -7 18 -14 21 -14 7z"/>
<path d="M2001 6084 c0 -11 3 -14 6 -6 3 7 2 16 -1 19 -3 4 -6 -2 -5 -13z"/>
<path d="M1792 6055 c0 -16 2 -22 5 -12 2 9 2 23 0 30 -3 6 -5 -1 -5 -18z"/>
<path d="M1810 5996 c0 -2 8 -10 18 -17 15 -13 16 -12 3 4 -13 16 -21 21 -21
13z"/>
<path d="M1928 5943 c7 -3 16 -2 19 1 4 3 -2 6 -13 5 -11 0 -14 -3 -6 -6z"/>
<path d="M1527 6071 c3 -10 0 -22 -6 -25 -7 -4 -11 1 -11 14 0 12 -4 19 -9 16
-10 -6 -9 -31 1 -41 3 -3 18 -1 34 5 23 9 25 13 14 20 -13 9 -13 10 0 10 13 0
13 1 0 10 -22 14 -29 12 -23 -9z"/>
<path d="M2327 5610 c-3 -11 -1 -20 4 -20 5 0 9 9 9 20 0 11 -2 20 -4 20 -2 0
-6 -9 -9 -20z"/>
<path d="M2212 5596 c-4 -6 -7 -15 -7 -21 -1 -5 -7 -9 -14 -7 -7 1 -9 -2 -6
-9 5 -7 17 -1 36 17 16 15 29 28 29 29 0 7 -32 -1 -38 -9z"/>
<path d="M2316 5555 c-4 -16 -11 -23 -18 -19 -7 4 -8 3 -4 -4 12 -20 24 -14
35 18 5 17 6 30 2 30 -5 0 -12 -11 -15 -25z"/>
<path d="M2139 5533 c-13 -16 -12 -17 4 -4 9 7 17 15 17 17 0 8 -8 3 -21 -13z"/>
<path d="M2273 5517 c4 -11 2 -17 -6 -16 -6 1 -21 1 -31 0 -16 -1 -17 -4 -8
-13 10 -10 15 -10 21 1 7 11 9 11 14 0 4 -11 8 -11 21 2 16 15 16 17 0 30 -16
12 -17 12 -11 -4z"/>
<path d="M2030 5480 c-8 -5 -10 -10 -5 -10 6 0 17 5 25 10 8 5 11 10 5 10 -5
0 -17 -5 -25 -10z"/>
<path d="M2513 5986 c1 -19 4 -32 7 -29 8 8 8 63 -1 63 -4 0 -7 -15 -6 -34z"/>
<path d="M1716 5824 c-3 -8 -2 -12 4 -9 6 3 10 1 10 -4 0 -6 -4 -11 -10 -11
-5 0 -10 -5 -10 -11 0 -5 5 -7 11 -3 8 5 8 1 0 -14 -8 -16 -7 -21 4 -26 8 -3
15 -16 15 -28 0 -16 -3 -19 -9 -10 -7 11 -9 11 -14 -1 -4 -10 2 -16 20 -20 23
-4 25 -3 19 27 -4 17 -9 50 -13 74 -6 46 -17 61 -27 36z"/>
<path d="M1676 5811 c-4 -5 -3 -17 1 -27 4 -12 3 -15 -5 -10 -7 4 -12 2 -12
-4 0 -7 7 -10 15 -6 9 3 15 0 15 -10 0 -8 -4 -12 -10 -9 -5 3 -10 1 -10 -5 0
-7 7 -10 15 -6 8 3 15 1 15 -4 0 -18 -38 -11 -43 8 -4 13 -5 11 -6 -5 0 -13 4
-23 10 -23 6 0 20 -11 31 -26 11 -14 23 -22 26 -19 4 3 0 10 -8 15 -10 6 -11
14 -4 32 8 17 7 30 -3 48 -7 14 -10 33 -7 43 6 18 -10 24 -20 8z"/>
<path d="M1732 5665 c4 -21 48 -54 48 -36 0 6 -7 11 -15 11 -8 0 -15 6 -15 14
0 8 -5 18 -11 22 -7 4 -10 0 -7 -11z"/>
<path d="M2511 5629 c0 -44 2 -79 4 -77 10 9 14 158 5 158 -5 0 -9 -35 -9 -81z"/>
<path d="M2598 5043 c6 -2 18 -2 25 0 6 3 1 5 -13 5 -14 0 -19 -2 -12 -5z"/>
<path d="M2468 5033 c7 -3 16 -2 19 1 4 3 -2 6 -13 5 -11 0 -14 -3 -6 -6z"/>
<path d="M2508 5033 c6 -2 18 -2 25 0 6 3 1 5 -13 5 -14 0 -19 -2 -12 -5z"/>
<path d="M2229 5026 c-2 -2 -55 -6 -118 -10 -63 -3 -117 -9 -120 -12 -3 -4 48
-3 114 1 66 4 125 8 132 8 7 0 10 4 7 9 -6 9 -9 10 -15 4z"/>
<path d="M2303 5023 c15 -2 39 -2 55 0 15 2 2 4 -28 4 -30 0 -43 -2 -27 -4z"/>
<path d="M2569 4889 c-5 -3 14 -6 41 -6 28 -1 50 2 50 7 0 8 -76 8 -91 -1z"/>
<path d="M2675 4890 c3 -5 8 -10 11 -10 2 0 4 5 4 10 0 6 -5 10 -11 10 -5 0
-7 -4 -4 -10z"/>
<path d="M2405 4880 c-7 -12 2 -12 30 0 19 8 19 9 -2 9 -12 1 -25 -3 -28 -9z"/>
<path d="M2278 4873 c7 -3 16 -2 19 1 4 3 -2 6 -13 5 -11 0 -14 -3 -6 -6z"/>
<path d="M2015 4744 c-18 -16 -22 -22 -9 -15 18 9 53 42 43 41 -2 -1 -17 -12
-34 -26z"/>
<path d="M2350 4720 c0 -5 4 -10 9 -10 6 0 13 5 16 10 3 6 -1 10 -9 10 -9 0
-16 -4 -16 -10z"/>
<path d="M2395 4710 c3 -5 8 -10 11 -10 2 0 4 5 4 10 0 6 -5 10 -11 10 -5 0
-7 -4 -4 -10z"/>
<path d="M2436 4697 c3 -9 10 -17 16 -17 5 0 7 -4 4 -9 -4 -5 4 -7 16 -3 16 4
18 7 8 10 -8 3 -23 12 -33 20 -16 15 -17 14 -11 -1z"/>
<path d="M2407 4683 c-10 -10 -8 -23 4 -23 5 0 8 4 5 9 -4 5 0 12 6 14 7 3 8
6 2 6 -6 1 -14 -2 -17 -6z"/>
<path d="M2536 4671 c-3 -5 1 -14 9 -21 10 -9 15 -9 15 -1 0 6 -5 11 -11 11
-5 0 -7 5 -4 10 3 6 4 10 1 10 -3 0 -7 -4 -10 -9z"/>
<path d="M2500 4650 c0 -6 7 -10 15 -10 8 0 15 2 15 4 0 2 -7 6 -15 10 -8 3
-15 1 -15 -4z"/>
<path d="M2575 4649 c-4 -6 -5 -12 -2 -15 2 -3 7 2 10 11 7 17 1 20 -8 4z"/>
<path d="M2600 4651 c0 -5 7 -12 16 -15 24 -9 27 -7 10 9 -17 17 -26 19 -26 6z"/>
<path d="M2597 4619 c7 -7 15 -10 18 -7 3 3 -2 9 -12 12 -14 6 -15 5 -6 -5z"/>
<path d="M2558 4613 c7 -3 16 -2 19 1 4 3 -2 6 -13 5 -11 0 -14 -3 -6 -6z"/>
<path d="M1630 2907 c0 -8 161 -69 166 -64 3 2 -30 17 -73 33 -43 16 -81 31
-85 32 -4 2 -8 1 -8 -1z"/>
<path d="M1990 2766 c0 -2 7 -7 16 -10 8 -3 12 -2 9 4 -6 10 -25 14 -25 6z"/>
<path d="M2250 2666 c14 -7 36 -16 50 -20 14 -3 7 3 -15 13 -45 22 -73 27 -35
7z"/>
<path d="M2370 2620 c8 -5 20 -10 25 -10 6 0 3 5 -5 10 -8 5 -19 10 -25 10 -5
0 -3 -5 5 -10z"/>
<path d="M2420 2600 c8 -5 20 -10 25 -10 6 0 3 5 -5 10 -8 5 -19 10 -25 10 -5
0 -3 -5 5 -10z"/>
<path d="M6515 6446 c-60 -28 -87 -56 -114 -116 -19 -42 -21 -64 -21 -382 0
-319 1 -340 21 -393 25 -67 71 -123 116 -141 18 -8 62 -14 98 -14 101 0 156
35 206 130 24 45 24 46 24 400 0 349 0 356 -23 405 -13 27 -33 61 -45 74 -58
63 -173 79 -262 37z m141 -167 c18 -20 19 -40 19 -338 0 -286 -2 -319 -18
-344 -25 -39 -71 -38 -92 3 -14 26 -15 76 -13 349 3 345 4 351 58 351 15 0 35
-9 46 -21z"/>
<path d="M5830 5935 l0 -525 85 0 85 0 0 180 0 180 45 0 c121 0 201 44 229
127 19 55 23 353 5 416 -6 21 -26 56 -46 78 -50 55 -104 69 -270 69 l-133 0 0
-525z m283 324 c14 -18 17 -42 17 -143 0 -155 -7 -170 -78 -174 l-52 -3 0 175
0 176 48 -5 c32 -3 53 -11 65 -26z"/>
<path d="M8777 6452 l-68 -3 3 -447 3 -447 25 -45 c14 -24 44 -58 68 -74 37
-26 54 -31 118 -34 40 -2 85 -1 99 2 38 10 100 70 127 124 23 47 23 48 26 487
l3 440 -83 -2 -83 -1 0 -415 c0 -387 -1 -416 -18 -435 -26 -29 -64 -36 -93
-17 l-24 15 -2 427 c-3 370 -5 426 -18 427 -8 1 -46 0 -83 -2z"/>
<path d="M9289 6218 c-2 -531 0 -803 6 -800 3 1 39 2 80 2 l75 0 0 189 0 188
83 7 c179 15 217 74 217 337 0 151 -11 203 -51 253 -44 52 -101 66 -271 66
l-138 0 -1 -242z m280 57 c17 -16 24 -175 11 -244 -10 -54 -30 -71 -87 -71
l-43 0 0 170 0 171 53 -6 c28 -4 58 -12 66 -20z"/>
<path d="M6884 6418 c3 -18 17 -118 31 -223 14 -104 41 -293 60 -420 19 -126
37 -250 40 -275 13 -97 6 -90 94 -90 l79 0 6 53 c3 28 15 142 26 252 30 286
31 289 45 165 7 -58 23 -187 36 -287 l23 -183 78 0 c54 0 80 4 82 13 2 6 16
104 31 217 15 113 46 341 69 508 l42 302 -78 0 c-74 0 -78 -1 -79 -22 0 -13
-17 -153 -38 -313 -35 -272 -38 -286 -45 -225 -24 216 -58 500 -62 528 l-6 32
-63 0 -62 0 -12 -90 c-6 -49 -22 -185 -36 -301 -13 -117 -26 -213 -28 -215 -3
-3 -68 567 -67 594 0 9 -24 12 -86 12 l-86 0 6 -32z"/>
<path d="M7690 5931 l0 -519 190 0 190 0 0 89 0 89 -110 0 -110 0 0 135 0 135
90 0 90 0 0 85 0 85 -90 0 -90 0 0 125 0 125 100 0 100 0 0 85 0 85 -180 0
-180 0 0 -519z"/>
<path d="M8152 5935 l3 -517 80 0 80 0 3 214 2 214 34 -4 34 -4 26 -141 c15
-78 32 -173 39 -210 l13 -69 87 -1 c48 -1 87 -1 87 0 0 1 -22 111 -50 244
l-50 242 34 38 c42 46 49 86 45 246 -5 135 -19 176 -83 227 l-38 31 -174 3
-174 4 2 -517z m282 333 c20 -28 22 -191 3 -228 -10 -21 -22 -26 -65 -30 l-52
-6 0 143 0 143 49 0 c40 0 53 -4 65 -22z"/>
<path d="M8157 5215 c-188 -48 -315 -175 -352 -352 -21 -99 -21 -1187 0 -1286
57 -269 316 -416 620 -352 144 30 256 108 311 217 43 85 55 143 61 301 l6 147
-175 0 -175 0 -5 -107 c-3 -64 -12 -123 -21 -145 -43 -101 -197 -105 -257 -6
-19 32 -20 52 -20 578 0 518 1 547 20 588 25 55 71 77 148 69 62 -7 99 -27
114 -65 5 -15 12 -79 14 -142 l4 -115 175 -3 175 -2 0 117 c0 198 -28 308 -97
394 -49 60 -141 122 -223 150 -84 28 -240 35 -323 14z"/>
<path d="M6628 4215 l2 -975 175 0 175 0 0 359 0 358 160 2 c127 1 173 6 223
21 114 36 200 122 247 247 32 86 43 207 37 418 -4 169 -8 199 -31 272 -32 100
-90 170 -177 214 -110 55 -143 59 -494 59 l-320 0 3 -975z m609 625 c44 -28
48 -52 48 -259 0 -168 -3 -201 -17 -228 -31 -56 -50 -63 -175 -63 l-113 0 0
288 0 287 117 -5 c78 -4 126 -10 140 -20z"/>
<path d="M1226 2432 c-2 -4 4 -8 14 -8 10 0 16 4 14 8 -3 4 -9 8 -14 8 -5 0
-11 -4 -14 -8z"/>
<path d="M1088 2353 c6 -2 18 -2 25 0 6 3 1 5 -13 5 -14 0 -19 -2 -12 -5z"/>
<path d="M1410 2351 c0 -10 30 -24 37 -17 3 2 -5 9 -16 16 -12 6 -21 7 -21 1z"/>
<path d="M1357 2343 c-13 -12 -7 -23 11 -22 10 0 12 3 4 6 -6 2 -10 9 -6 14 6
10 0 12 -9 2z"/>
<path d="M1326 2302 c-2 -4 4 -8 14 -8 10 0 16 4 14 8 -3 4 -9 8 -14 8 -5 0
-11 -4 -14 -8z"/>
<path d="M1430 2300 c8 -5 20 -10 25 -10 6 0 3 5 -5 10 -8 5 -19 10 -25 10 -5
0 -3 -5 5 -10z"/>
<path d="M1486 2283 c-6 -14 -5 -15 5 -6 7 7 10 15 7 18 -3 3 -9 -2 -12 -12z"/>
<path d="M1360 2253 c0 -9 40 -36 45 -31 2 2 -8 11 -21 21 -13 10 -24 14 -24
10z"/>
<path d="M1540 2230 c0 -5 5 -10 11 -10 5 0 7 -5 3 -12 -4 -7 -3 -8 5 -4 9 6
9 11 0 22 -14 17 -19 18 -19 4z"/>
<path d="M1660 2230 c0 -17 30 -24 43 -10 9 10 9 11 0 6 -6 -3 -14 -2 -18 4
-8 13 -25 13 -25 0z"/>
<path d="M1480 2224 c0 -6 11 -16 25 -22 32 -15 35 -15 35 -2 0 6 -8 10 -18
10 -10 0 -23 5 -30 12 -7 7 -12 8 -12 2z"/>
<path d="M1640 2207 c0 -10 8 -17 18 -17 9 0 13 4 7 8 -5 4 -13 11 -17 16 -5
5 -8 2 -8 -7z"/>
<path d="M1600 2190 c-13 -8 -12 -10 3 -10 9 0 17 5 17 10 0 12 -1 12 -20 0z"/>
<path d="M1738 2193 c7 -3 16 -2 19 1 4 3 -2 6 -13 5 -11 0 -14 -3 -6 -6z"/>
<path d="M1535 2170 c-3 -5 -1 -10 4 -10 6 0 11 5 11 10 0 6 -2 10 -4 10 -3 0
-8 -4 -11 -10z"/>
<path d="M1647 2169 c7 -7 15 -10 18 -7 3 3 -2 9 -12 12 -14 6 -15 5 -6 -5z"/>
<path d="M1800 2171 c0 -6 3 -10 8 -9 4 1 17 -3 30 -10 12 -7 22 -9 22 -4 0 6
-8 12 -17 16 -10 3 -24 9 -30 12 -7 3 -13 1 -13 -5z"/>
<path d="M1585 2150 c3 -5 8 -10 11 -10 2 0 4 5 4 10 0 6 -5 10 -11 10 -5 0
-7 -4 -4 -10z"/>
<path d="M1735 2147 c4 -9 -3 -21 -17 -31 -12 -9 -17 -16 -11 -16 7 0 15 5 18
11 4 6 14 8 22 5 8 -3 11 -1 8 4 -3 6 -2 10 4 10 5 0 13 -9 16 -20 4 -11 11
-17 17 -14 6 4 6 10 -1 17 -16 16 -13 30 4 24 8 -4 17 -2 20 3 3 5 -9 7 -27 5
-17 -3 -38 1 -45 7 -10 8 -12 7 -8 -5z"/>
<path d="M1652 2124 c13 -13 20 -14 34 -5 17 11 17 11 -3 6 -14 -4 -23 -2 -23
4 0 6 -5 11 -12 11 -8 0 -7 -6 4 -16z"/>
<path d="M1865 2130 c-3 -5 1 -10 9 -10 9 0 16 5 16 10 0 6 -4 10 -9 10 -6 0
-13 -4 -16 -10z"/>
<path d="M1831 2119 c-1 -9 -10 -24 -22 -35 -20 -18 -21 -18 -35 1 -12 16 -14
17 -14 2 0 -9 3 -18 8 -18 24 -5 61 -4 60 1 -2 20 4 29 16 24 8 -3 12 -13 9
-22 -4 -14 -3 -14 5 -3 8 11 12 10 21 -8 7 -12 19 -20 28 -19 9 2 18 -3 20 -9
7 -18 -32 -16 -47 2 -14 17 -30 20 -30 6 0 -16 74 -40 88 -29 7 6 15 8 19 4 3
-3 1 -6 -6 -6 -7 0 -9 -5 -6 -10 10 -16 37 10 30 28 -4 10 0 12 11 8 12 -5 14
-1 9 15 -7 20 -4 21 21 15 27 -6 28 -5 10 9 -11 8 -30 15 -43 15 -13 0 -23 4
-23 8 0 11 -51 34 -59 27 -6 -7 20 -26 29 -20 3 1 11 -3 18 -11 8 -9 9 -14 2
-14 -6 0 -8 -4 -5 -10 3 -5 -1 -10 -9 -10 -8 0 -18 5 -21 11 -4 6 -12 8 -19 6
-13 -5 -50 22 -59 43 -4 12 -6 12 -6 -1z m149 -46 c0 -5 -8 -17 -17 -28 -14
-18 -15 -18 -9 -2 3 10 6 23 6 28 0 5 5 9 10 9 6 0 10 -3 10 -7z m-70 -13 c0
-5 -4 -10 -10 -10 -5 0 -10 5 -10 10 0 6 5 10 10 10 6 0 10 -4 10 -10z"/>
<path d="M1912 2086 c7 -8 17 -12 22 -9 4 3 2 9 -5 14 -22 13 -31 11 -17 -5z"/>
<path d="M5450 2000 c20 -13 33 -13 25 0 -3 6 -14 10 -23 10 -15 0 -15 -2 -2
-10z"/>
<path d="M5490 1989 c0 -5 5 -7 10 -4 6 3 10 8 10 11 0 2 -4 4 -10 4 -5 0 -10
-5 -10 -11z"/>
<path d="M4780 1840 c-23 -7 -23 -8 -3 -9 12 -1 25 4 28 9 3 6 5 10 3 9 -2 -1
-14 -5 -28 -9z"/>
<path d="M4718 1823 c6 -2 18 -2 25 0 6 3 1 5 -13 5 -14 0 -19 -2 -12 -5z"/>
<path d="M4636 1811 c-4 -5 3 -7 14 -4 23 6 26 13 6 13 -8 0 -17 -4 -20 -9z"/>
<path d="M3570 1600 c0 -5 5 -10 11 -10 5 0 7 5 4 10 -3 6 -8 10 -11 10 -2 0
-4 -4 -4 -10z"/>
<path d="M3195 1510 c-3 -5 -1 -10 4 -10 6 0 11 5 11 10 0 6 -2 10 -4 10 -3 0
-8 -4 -11 -10z"/>
</g>
</svg>
